<svg xmlns="http://www.w3.org/2000/svg" xmlns:xlink="http://www.w3.org/1999/xlink" width="59.434" height="60" viewBox="0 0 59.434 60">
  <defs>
    <clipPath id="clip-path">
      <rect id="Rectangle_5377" data-name="Rectangle 5377" width="30.111" height="33.83" fill="none"/>
    </clipPath>
  </defs>
  <g id="App_lifecycle" data-name="App lifecycle" transform="translate(-0.024 0.003)">
    <g id="Group_2211" data-name="Group 2211" transform="translate(14.686 13.082)" clip-path="url(#clip-path)">
      <path id="Path_10011" data-name="Path 10011" d="M68.625,60.041l-12.4,7.174V53.327l12.4-6.975V60.037ZM55.341,51.793,49.668,48.6l12.364-6.953,5.673,3.189Zm-.887,15.421-12.4-7.174V46.356l12.4,6.975V67.218Zm.887-29.327,4.885,2.748L47.862,47.588,42.977,44.84ZM70.394,60.552V44.84a.8.8,0,0,0-.033-.232c-.007-.022-.022-.048-.029-.074a.935.935,0,0,0-.059-.14.49.49,0,0,0-.051-.07.674.674,0,0,0-.088-.114.807.807,0,0,1-.066-.051c-.04-.029-.074-.063-.114-.088h-.007s0,0-.007,0L55.768,36.1a.882.882,0,0,0-.865,0L40.732,44.067s0,0-.007,0h-.007a1.345,1.345,0,0,0-.114.088.807.807,0,0,1-.066.052.832.832,0,0,0-.085.114.246.246,0,0,0-.052.07.533.533,0,0,0-.059.14.447.447,0,0,0-.033.074.818.818,0,0,0-.029.232V60.552a.887.887,0,0,0,.441.769l14.171,8.2h0a.872.872,0,0,0,.169.074c.015,0,.029.015.044.022a.9.9,0,0,0,.456,0,.49.49,0,0,1,.044-.022,1.165,1.165,0,0,0,.169-.07h0l14.171-8.2a.887.887,0,0,0,.441-.769" transform="translate(-40.287 -35.985)" fill="#100f0d"/>
    </g>
    <path id="Path_10012" data-name="Path 10012" d="M72.9,59.31a1.1,1.1,0,0,0-.19-.368.966.966,0,0,0-.314-.269,1.069,1.069,0,0,0-.8-.1,1.057,1.057,0,0,0-.369.184,1.018,1.018,0,0,0-.274.313,1.054,1.054,0,0,0-.135.39,1,1,0,0,0,.022.416c6.783,25.814-22.751,45.37-43.535,29.176l5.2.644a1.068,1.068,0,0,0,.79-.224,1.119,1.119,0,0,0,.271-.316,1.035,1.035,0,0,0,.128-.4,1.157,1.157,0,0,0-.029-.419,1.084,1.084,0,0,0-.5-.647,1.091,1.091,0,0,0-.395-.132l-8.63-1.067a1.1,1.1,0,0,0-.475.059,1.036,1.036,0,0,0-.4.258,1.095,1.095,0,0,0-.314.883L24,96.388a1.054,1.054,0,0,0,.135.39,1.1,1.1,0,0,0,.271.313,1.089,1.089,0,0,0,.369.184,1.04,1.04,0,0,0,.413.029,1.091,1.091,0,0,0,.391-.129,1.1,1.1,0,0,0,.314-.269,1.075,1.075,0,0,0,.227-.784L25.41,90.3c22.506,18.25,54.765-2.8,47.484-30.99Z" transform="translate(-14.484 -37.317)" fill="#231f20"/>
    <path id="Path_10013" data-name="Path 10013" d="M10.228,10.534q.883-.888,1.843-1.692c.64-.533,1.3-1.041,1.986-1.516S15.446,6.41,16.17,6s1.466-.787,2.223-1.129,1.532-.655,2.315-.927,1.583-.511,2.391-.71,1.624-.364,2.443-.489,1.649-.217,2.479-.269,1.66-.066,2.49-.04,1.66.085,2.486.188,1.642.239,2.457.412,1.616.386,2.41.633,1.576.53,2.344.85,1.525.673,2.26,1.059,1.455.806,2.154,1.258S46,7.771,46.655,8.282l-5.2-.64a1.1,1.1,0,0,0-.41.037,1.043,1.043,0,0,0-.369.191,1.106,1.106,0,0,0-.267.316,1.087,1.087,0,0,0-.1.809,1.118,1.118,0,0,0,.183.375,1.087,1.087,0,0,0,.307.272,1.057,1.057,0,0,0,.391.136l8.63,1.067a1.059,1.059,0,0,0,.241,0,.868.868,0,0,0,.234-.055,1.073,1.073,0,0,0,.216-.107,1.071,1.071,0,0,0,.336-.342,1.084,1.084,0,0,0,.106-.217,1.333,1.333,0,0,0,.055-.239.9.9,0,0,0,0-.243L49.949.947a1.17,1.17,0,0,0-.128-.4A1.026,1.026,0,0,0,49.551.23a1.124,1.124,0,0,0-.373-.191,1,1,0,0,0-.417-.033,1.069,1.069,0,0,0-.395.132.988.988,0,0,0-.314.276,1.1,1.1,0,0,0-.19.375,1.087,1.087,0,0,0-.029.419l.709,5.823c-.585-.486-1.192-.945-1.814-1.383S45.467,4.795,44.816,4.4s-1.32-.754-2-1.089-1.375-.647-2.081-.931-1.419-.541-2.143-.769-1.455-.43-2.2-.6S34.906.7,34.157.586s-1.5-.2-2.263-.254S30.376.248,29.619.252s-1.517.033-2.274.1-1.51.151-2.26.269-1.492.269-2.231.445-1.47.383-2.194.614-1.437.493-2.139.784-1.393.6-2.073.945-1.346.71-2,1.1-1.287.809-1.905,1.254-1.221.909-1.806,1.4-1.148,1-1.693,1.534S7.976,9.776,7.475,10.35s-.984,1.166-1.441,1.773-.892,1.236-1.3,1.88-.8,1.3-1.155,1.975-.695,1.357-1,2.056-.589,1.409-.845,2.13-.479,1.449-.676,2.189S.684,23.84.545,24.59.289,26.1.205,26.856.066,28.379.041,29.145s-.022,1.53.011,2.292.1,1.527.186,2.285.208,1.512.355,2.266a1.071,1.071,0,0,0,.841.85,1.134,1.134,0,0,0,.417,0,1.088,1.088,0,0,0,.388-.162,1.042,1.042,0,0,0,.3-.3,1.075,1.075,0,0,0,.161-.39,1.1,1.1,0,0,0,0-.423,27.579,27.579,0,0,1-.453-3.373A27.992,27.992,0,0,1,2.575,25.4a27.559,27.559,0,0,1,.783-3.311A27.843,27.843,0,0,1,8,13.076a27.392,27.392,0,0,1,2.241-2.549Z" transform="translate(0 0)" fill="#231f20"/>
  </g>
</svg>
