<svg xmlns="http://www.w3.org/2000/svg" xmlns:xlink="http://www.w3.org/1999/xlink" width="258.896" height="51.966" viewBox="0 0 258.896 51.966">
  <defs>
    <clipPath id="clip-path">
      <path id="Path_7900" data-name="Path 7900" d="M0,30.783a13.876,13.876,0,0,0,26.134,6.506H17a7.312,7.312,0,1,1,.256-13.011h8.876A13.876,13.876,0,0,0,0,30.783" transform="translate(0 -16.905)" fill="#3db1f2"/>
    </clipPath>
    <clipPath id="clip-path-2">
      <path id="Path_7901" data-name="Path 7901" d="M25.408,0A3.063,3.063,0,0,0,23.26,1.08,3.06,3.06,0,0,0,22.6,3.34l.062,5.809H28.2l.011-1.009A1.513,1.513,0,0,1,29.655,6.52h3.309c7.495-.437,7.12,7.168,7.12,7.168,0,6.671-4.863,6.759-4.863,6.759L22.6,20.476v3.81a2.771,2.771,0,0,0,2.562,2.556H36.5a10.97,10.97,0,0,0,5.547-2.913,11.612,11.612,0,0,0,2.868-5.019A18.236,18.236,0,0,0,45.58,14C45.768.659,34.963,0,34.963,0Z" transform="translate(-22.579)" fill="#3db1f2"/>
    </clipPath>
  </defs>
  <g id="Group_2083" data-name="Group 2083" transform="translate(10608 -967.788)">
    <path id="If_the_path_is_beaut" data-name="If the path is beaut" d="M.769,2.544H5.476v.791H1.622V5.3H5.186v.747H1.622V8.231h3.92V9H.769ZM8.257,4.293h.782v.668a2.629,2.629,0,0,1,.51-.505,1.533,1.533,0,0,1,.888-.268,1.4,1.4,0,0,1,.905.277,1.447,1.447,0,0,1,.352.466,1.71,1.71,0,0,1,.62-.56,1.728,1.728,0,0,1,.8-.182,1.308,1.308,0,0,1,1.292.686,2.241,2.241,0,0,1,.185.993V9h-.822V5.73a.761.761,0,0,0-.235-.646.931.931,0,0,0-.573-.176,1.138,1.138,0,0,0-.8.312,1.37,1.37,0,0,0-.336,1.042V9h-.8V5.928a1.6,1.6,0,0,0-.114-.7.7.7,0,0,0-.672-.33,1.16,1.16,0,0,0-.815.347A1.7,1.7,0,0,0,9.048,6.5V9H8.257Zm9.11-1.771h.769V4.865a1.724,1.724,0,0,1,1.4-.694,1.834,1.834,0,0,1,1.426.6,2.574,2.574,0,0,1,.547,1.782,3.056,3.056,0,0,1-.541,1.854,1.753,1.753,0,0,1-1.5.738,1.535,1.535,0,0,1-.905-.259A2.186,2.186,0,0,1,18.1,8.4V9h-.729Zm2.057,5.928a1.057,1.057,0,0,0,.96-.51A2.51,2.51,0,0,0,20.7,6.6a2.207,2.207,0,0,0-.319-1.23,1.049,1.049,0,0,0-.938-.488,1.309,1.309,0,0,0-.947.4A1.8,1.8,0,0,0,18.092,6.6a2.914,2.914,0,0,0,.167,1.077A1.154,1.154,0,0,0,19.423,8.451Zm4.706-4.157h.751v.813a1.8,1.8,0,0,1,.453-.578,1.174,1.174,0,0,1,.831-.341l.075,0,.18.018v.835a1.182,1.182,0,0,0-.13-.018q-.059,0-.13,0a1.129,1.129,0,0,0-.918.385,1.342,1.342,0,0,0-.321.885V9h-.791Zm5.256,3.454a.651.651,0,0,0,.25.541.929.929,0,0,0,.593.2,1.8,1.8,0,0,0,.809-.193,1.088,1.088,0,0,0,.659-1.05V6.6a1.353,1.353,0,0,1-.374.154,3.183,3.183,0,0,1-.448.088l-.479.062a1.832,1.832,0,0,0-.646.18A.7.7,0,0,0,29.385,7.748Zm1.916-1.6a.43.43,0,0,0,.365-.229.7.7,0,0,0,.053-.3.642.642,0,0,0-.288-.587,1.544,1.544,0,0,0-.824-.182,1.047,1.047,0,0,0-.879.334,1.1,1.1,0,0,0-.189.549H28.8a1.359,1.359,0,0,1,.565-1.211,2.319,2.319,0,0,1,1.259-.341,2.562,2.562,0,0,1,1.349.316,1.073,1.073,0,0,1,.514.984V8.191a.347.347,0,0,0,.051.2.244.244,0,0,0,.213.075q.053,0,.119-.007t.141-.02v.584a2.2,2.2,0,0,1-.281.066,2.055,2.055,0,0,1-.264.013.651.651,0,0,1-.593-.29,1.119,1.119,0,0,1-.136-.435,2.013,2.013,0,0,1-.694.549,2.148,2.148,0,0,1-1,.233,1.483,1.483,0,0,1-1.07-.4,1.321,1.321,0,0,1-.415-1,1.282,1.282,0,0,1,.409-1.015,1.945,1.945,0,0,1,1.072-.444Zm5.972-1.991a2.052,2.052,0,0,1,1.294.387,1.853,1.853,0,0,1,.6,1.332H38.4a1.42,1.42,0,0,0-.321-.723,1.013,1.013,0,0,0-.8-.288,1.111,1.111,0,0,0-1.081.738,2.933,2.933,0,0,0-.211,1.182,2.225,2.225,0,0,0,.3,1.191A1.158,1.158,0,0,0,38,8.158a1.655,1.655,0,0,0,.4-.824h.769A2.064,2.064,0,0,1,38.508,8.7a2.057,2.057,0,0,1-1.349.433,1.8,1.8,0,0,1-1.472-.675,2.582,2.582,0,0,1-.549-1.685,2.839,2.839,0,0,1,.6-1.929A1.945,1.945,0,0,1,37.273,4.157Zm6.319.031a2.147,2.147,0,0,1,.971.235,1.791,1.791,0,0,1,.716.609,2.1,2.1,0,0,1,.316.831,5.434,5.434,0,0,1,.07,1.037h-3.45a2.013,2.013,0,0,0,.338,1.149,1.133,1.133,0,0,0,.98.433,1.267,1.267,0,0,0,.989-.409,1.378,1.378,0,0,0,.3-.549H45.6a1.638,1.638,0,0,1-.2.578,2.055,2.055,0,0,1-.389.521,1.843,1.843,0,0,1-.892.475,2.71,2.71,0,0,1-.646.07,1.982,1.982,0,0,1-1.49-.639,2.488,2.488,0,0,1-.611-1.791A2.705,2.705,0,0,1,41.983,4.9,2.03,2.03,0,0,1,43.592,4.188Zm1.261,2.083a2.049,2.049,0,0,0-.224-.822,1.149,1.149,0,0,0-1.085-.571,1.2,1.2,0,0,0-.914.393,1.486,1.486,0,0,0-.391,1Zm10.458-3.9a2.645,2.645,0,0,1,1.9.646,2.281,2.281,0,0,1,.751,1.468h-.853a1.774,1.774,0,0,0-.578-.989,1.832,1.832,0,0,0-1.215-.365,1.948,1.948,0,0,0-1.54.67,3.055,3.055,0,0,0-.587,2.054,2.984,2.984,0,0,0,.53,1.839A1.85,1.85,0,0,0,55.3,8.4a1.669,1.669,0,0,0,1.472-.743,2.824,2.824,0,0,0,.4-1.028h.853a2.913,2.913,0,0,1-.756,1.709,2.69,2.69,0,0,1-2.074.831,2.738,2.738,0,0,1-1.89-.681A3.549,3.549,0,0,1,52.3,5.7a3.553,3.553,0,0,1,.756-2.342A2.761,2.761,0,0,1,55.311,2.369Zm5.37.176h.791V9h-.791ZM66.2,8.49a1.091,1.091,0,0,0,1.079-.6,2.967,2.967,0,0,0,.292-1.325A2.359,2.359,0,0,0,67.361,5.5a1.187,1.187,0,0,0-1.151-.65,1.135,1.135,0,0,0-1.055.554,2.567,2.567,0,0,0-.33,1.336,2.233,2.233,0,0,0,.33,1.252A1.161,1.161,0,0,0,66.2,8.49Zm.031-4.333a2.131,2.131,0,0,1,1.538.606A2.368,2.368,0,0,1,68.4,6.548a3.061,3.061,0,0,1-.554,1.881,2,2,0,0,1-1.718.743,1.94,1.94,0,0,1-1.542-.657,2.6,2.6,0,0,1-.571-1.764,2.807,2.807,0,0,1,.6-1.89A2.021,2.021,0,0,1,66.231,4.157Zm5.572.136V7.418a1.317,1.317,0,0,0,.114.589.8.8,0,0,0,.787.422,1.112,1.112,0,0,0,1.125-.738A2.929,2.929,0,0,0,73.992,6.6V4.293h.791V9h-.747l.009-.694a1.6,1.6,0,0,1-.382.453,1.682,1.682,0,0,1-1.1.369,1.417,1.417,0,0,1-1.371-.672,2,2,0,0,1-.2-.962v-3.2ZM78.192,6.7a2.333,2.333,0,0,0,.321,1.266,1.124,1.124,0,0,0,1.028.51,1.083,1.083,0,0,0,.9-.472A2.231,2.231,0,0,0,80.8,6.649a2,2,0,0,0-.365-1.321,1.138,1.138,0,0,0-.9-.428,1.189,1.189,0,0,0-.969.457A2.093,2.093,0,0,0,78.192,6.7ZM79.383,4.21a1.674,1.674,0,0,1,.905.229,2.126,2.126,0,0,1,.479.461V2.522h.76V9h-.712V8.345a1.711,1.711,0,0,1-.655.628,1.874,1.874,0,0,1-.866.193,1.753,1.753,0,0,1-1.362-.661,2.586,2.586,0,0,1-.576-1.76,3.038,3.038,0,0,1,.525-1.782A1.719,1.719,0,0,1,79.383,4.21Zm9.245-1.666h1.252L91.736,8l1.841-5.458h1.239V9h-.831V5.19q0-.2.009-.655T94,3.555L92.162,9H91.3L89.442,3.555v.2q0,.237.011.723t.011.714V9h-.835Zm9.879,1.749V7.418a1.317,1.317,0,0,0,.114.589.8.8,0,0,0,.787.422,1.112,1.112,0,0,0,1.125-.738A2.929,2.929,0,0,0,100.7,6.6V4.293h.791V9h-.747l.009-.694a1.6,1.6,0,0,1-.382.453,1.682,1.682,0,0,1-1.1.369A1.417,1.417,0,0,1,97.9,8.455a2,2,0,0,1-.2-.962v-3.2Zm5.91-1.749h.791V9h-.791Zm3.81.435h.8V4.293h.751v.646h-.751V8.011a.332.332,0,0,0,.167.33.71.71,0,0,0,.308.048l.123,0q.066,0,.154-.011V9a1.766,1.766,0,0,1-.283.057,2.7,2.7,0,0,1-.319.018.859.859,0,0,1-.751-.283,1.26,1.26,0,0,1-.2-.736V4.939h-.637V4.293h.637Zm4.016,1.336h.8V9h-.8Zm0-1.771h.8v.9h-.8Zm4.06,1.749,1.257,3.832,1.314-3.832h.866L117.965,9h-.844l-1.736-4.707Zm7.747-.105a2.147,2.147,0,0,1,.971.235,1.791,1.791,0,0,1,.716.609,2.1,2.1,0,0,1,.316.831,5.434,5.434,0,0,1,.07,1.037h-3.45a2.013,2.013,0,0,0,.338,1.149,1.133,1.133,0,0,0,.98.433,1.267,1.267,0,0,0,.989-.409,1.378,1.378,0,0,0,.3-.549h.778a1.638,1.638,0,0,1-.2.578,2.055,2.055,0,0,1-.389.521,1.843,1.843,0,0,1-.892.475,2.71,2.71,0,0,1-.646.07,1.982,1.982,0,0,1-1.49-.639,2.488,2.488,0,0,1-.611-1.791,2.705,2.705,0,0,1,.615-1.841A2.03,2.03,0,0,1,124.051,4.188Zm1.261,2.083a2.049,2.049,0,0,0-.224-.822A1.149,1.149,0,0,0,124,4.878a1.2,1.2,0,0,0-.914.393,1.486,1.486,0,0,0-.391,1Zm3.48-1.978h.751v.813A1.8,1.8,0,0,1,130,4.529a1.174,1.174,0,0,1,.831-.341l.075,0,.18.018v.835a1.182,1.182,0,0,0-.13-.018q-.059,0-.13,0a1.129,1.129,0,0,0-.918.385,1.342,1.342,0,0,0-.321.885V9h-.791Zm5.119,3.23a1.15,1.15,0,0,0,.2.606,1.243,1.243,0,0,0,1.037.382,1.53,1.53,0,0,0,.773-.191.635.635,0,0,0,.334-.591.505.505,0,0,0-.268-.461,3.187,3.187,0,0,0-.677-.224l-.628-.158a3.066,3.066,0,0,1-.888-.334,1,1,0,0,1-.51-.888,1.356,1.356,0,0,1,.481-1.081,1.92,1.92,0,0,1,1.294-.413,1.8,1.8,0,0,1,1.534.624,1.354,1.354,0,0,1,.286.853h-.747a.915.915,0,0,0-.189-.488A1.205,1.205,0,0,0,135,4.847a1.129,1.129,0,0,0-.679.171.537.537,0,0,0-.231.453.557.557,0,0,0,.3.492,1.822,1.822,0,0,0,.519.193l.523.127a4.043,4.043,0,0,1,1.143.4,1.059,1.059,0,0,1,.461.954,1.453,1.453,0,0,1-.477,1.085,2.03,2.03,0,0,1-1.452.457A1.949,1.949,0,0,1,133.62,8.7a1.8,1.8,0,0,1-.468-1.18Zm7.664-3.335a2.147,2.147,0,0,1,.971.235,1.791,1.791,0,0,1,.716.609,2.1,2.1,0,0,1,.316.831,5.434,5.434,0,0,1,.07,1.037H140.2a2.013,2.013,0,0,0,.338,1.149,1.133,1.133,0,0,0,.98.433,1.267,1.267,0,0,0,.989-.409,1.378,1.378,0,0,0,.3-.549h.778a1.638,1.638,0,0,1-.2.578,2.055,2.055,0,0,1-.389.521,1.843,1.843,0,0,1-.892.475,2.71,2.71,0,0,1-.646.07,1.982,1.982,0,0,1-1.49-.639,2.488,2.488,0,0,1-.611-1.791,2.705,2.705,0,0,1,.615-1.841A2.03,2.03,0,0,1,141.576,4.188Zm1.261,2.083a2.049,2.049,0,0,0-.224-.822,1.149,1.149,0,0,0-1.085-.571,1.2,1.2,0,0,0-.914.393,1.486,1.486,0,0,0-.391,1Z" transform="translate(-10492.755 1010.574)" fill="#676767"/>
    <g id="Group_1479" data-name="Group 1479" transform="translate(-10608 967.788)">
      <g id="Group_1480" data-name="Group 1480" transform="translate(0 11.337)">
        <g id="Group_1479-2" data-name="Group 1479" clip-path="url(#clip-path)">
          <rect id="Rectangle_4803" data-name="Rectangle 4803" width="26.134" height="27.756" transform="translate(0 0)" fill="#3db1f2"/>
        </g>
      </g>
      <g id="Group_1482" data-name="Group 1482" transform="translate(15.143)">
        <g id="Group_1481" data-name="Group 1481" clip-path="url(#clip-path-2)">
          <rect id="Rectangle_4804" data-name="Rectangle 4804" width="23.307" height="26.841" transform="translate(-0.118 0)" fill="#3db1f2"/>
        </g>
      </g>
    </g>
    <g id="Group_2081" data-name="Group 2081">
      <path id="Path_8995" data-name="Path 8995" d="M8.742-11.562v2.547H7.594a8.088,8.088,0,0,0-3.586.469,1.575,1.575,0,0,0-.6.766,5.394,5.394,0,0,0-.3,2,5.726,5.726,0,0,0,.258,1.914,1.655,1.655,0,0,0,.539.781q.711.547,3.688.539H8.742V0H7.594A22.891,22.891,0,0,1,4.734-.125,5.1,5.1,0,0,1,2.344-1.07,4.136,4.136,0,0,1,.977-2.977a8.122,8.122,0,0,1-.43-2.8A7.864,7.864,0,0,1,1.039-8.75a4.058,4.058,0,0,1,1.578-1.93,5.385,5.385,0,0,1,2.289-.781,24.966,24.966,0,0,1,2.688-.1ZM16.453,0H13.89V-11.633h2.563Zm9.555-6.367a1.967,1.967,0,0,0-1.422.469A2.227,2.227,0,0,0,24.1-4.3a2.21,2.21,0,0,0,.484,1.594,1.967,1.967,0,0,0,1.422.469,1.967,1.967,0,0,0,1.422-.469A2.21,2.21,0,0,0,27.914-4.3,2.227,2.227,0,0,0,27.429-5.9,1.967,1.967,0,0,0,26.007-6.367Zm-3.1-1.211a4.178,4.178,0,0,1,3.1-1.187,4.178,4.178,0,0,1,3.1,1.188,4.407,4.407,0,0,1,1.2,3.273,4.434,4.434,0,0,1-1.2,3.281,4.194,4.194,0,0,1-3.1,1.18,4.194,4.194,0,0,1-3.1-1.18A4.434,4.434,0,0,1,21.7-4.3,4.407,4.407,0,0,1,22.906-7.578ZM41.453-8.609h2.563v4.461a4.228,4.228,0,0,1-1.2,3.125,4.194,4.194,0,0,1-3.1,1.18,4.194,4.194,0,0,1-3.1-1.18,4.228,4.228,0,0,1-1.2-3.125V-8.609h2.563v4.461a1.78,1.78,0,0,0,.445,1.313,1.779,1.779,0,0,0,1.3.43,1.779,1.779,0,0,0,1.3-.43,1.78,1.78,0,0,0,.445-1.312ZM57.7-11.633H55.14v7.359a2,2,0,0,1-.445,1.438,1.779,1.779,0,0,1-1.3.43,1.779,1.779,0,0,1-1.3-.43A2.022,2.022,0,0,1,51.656-4.3,2.039,2.039,0,0,1,52.1-5.773a1.779,1.779,0,0,1,1.3-.43,3.19,3.19,0,0,1,.992.141V-8.7a7.747,7.747,0,0,0-.992-.062,4.178,4.178,0,0,0-3.1,1.188,4.407,4.407,0,0,0-1.2,3.273,4.434,4.434,0,0,0,1.2,3.281A4.194,4.194,0,0,0,53.4.156a4.194,4.194,0,0,0,3.1-1.18A4.485,4.485,0,0,0,57.7-4.3v-7.328Z" transform="translate(-10560.755 999.787)"/>
    </g>
    <g id="Group_2082" data-name="Group 2082" transform="translate(-1.047)">
      <path id="Path_8995-2" data-name="Path 8995" d="M74.452-2.562h1.234a2.125,2.125,0,0,0,1.43-.516,2.886,2.886,0,0,0,.82-1.289,4.449,4.449,0,0,0,.227-1.445,4.52,4.52,0,0,0-.227-1.453,2.83,2.83,0,0,0-.82-1.281,2.106,2.106,0,0,0-1.43-.523H73.7V0H71.14V-9.141a2.394,2.394,0,0,1,.727-1.758,2.407,2.407,0,0,1,1.766-.734h2.055a4.563,4.563,0,0,1,3,1.031,5.417,5.417,0,0,1,1.672,2.523,7.211,7.211,0,0,1,.359,2.266,7.139,7.139,0,0,1-.359,2.258,5.417,5.417,0,0,1-1.672,2.523,4.563,4.563,0,0,1-3,1.031H74.452ZM91.671-5.75a1.609,1.609,0,0,0-1.109-.656,2.016,2.016,0,0,0-1.219.227,1.788,1.788,0,0,0-.742.766,2.158,2.158,0,0,0-.266,1.055,1.944,1.944,0,0,0,.445,1.3,1.8,1.8,0,0,0,1.43.586h3.234V0H90.21a4.142,4.142,0,0,1-3.484-1.578,4.454,4.454,0,0,1-.9-2.8,4.614,4.614,0,0,1,.648-2.453,3.917,3.917,0,0,1,1.953-1.609,4.922,4.922,0,0,1,1.781-.312,4.314,4.314,0,0,1,2.461.789,4.3,4.3,0,0,1,1.508,1.7,1.957,1.957,0,0,1,.211,1.328,1.134,1.134,0,0,1-.883.828l-2.992.852A.9.9,0,0,1,90.2-3.2a1.01,1.01,0,0,1-.742-.3,1.014,1.014,0,0,1-.3-.734,1,1,0,0,1,.227-.648,1,1,0,0,1,.563-.367Zm14.687-2.859h-4.43a2.769,2.769,0,0,0-1.984.82,2.665,2.665,0,0,0-.812,1.969,2.313,2.313,0,0,0,.8,1.828,2.923,2.923,0,0,0,1.992.688h2a.52.52,0,0,1,.359.133.5.5,0,0,1,.156.391q0,.453-.523.453H99.374V0h4.7a2.687,2.687,0,0,0,1.961-.828,2.672,2.672,0,0,0,.813-1.961,2.313,2.313,0,0,0-.8-1.828,2.923,2.923,0,0,0-1.992-.687h-2a.52.52,0,0,1-.359-.133.489.489,0,0,1-.156-.383.425.425,0,0,1,.164-.359.564.564,0,0,1,.352-.1h4.313ZM116.866,0V-2.562h-.578a1.779,1.779,0,0,1-1.3-.43,1.761,1.761,0,0,1-.445-1.281V-6.289h2.328v-2.32h-2.328v-3.023l-2.562.781V-4.3a4.277,4.277,0,0,0,1.2,3.125A4.183,4.183,0,0,0,116.28,0Zm6.484-12.039a1.394,1.394,0,0,1,1.023.422,1.394,1.394,0,0,1,.422,1.023,1.384,1.384,0,0,1-.422,1.016,1.394,1.394,0,0,1-1.023.422,1.384,1.384,0,0,1-1.016-.422,1.384,1.384,0,0,1-.422-1.016,1.394,1.394,0,0,1,.422-1.023A1.384,1.384,0,0,1,123.35-12.039ZM124.631,0h-2.562V-8.375h2.563Zm14.086,0h-2.562V-4.461a1.8,1.8,0,0,0-.445-1.312,1.779,1.779,0,0,0-1.3-.43,1.779,1.779,0,0,0-1.3.43,1.8,1.8,0,0,0-.445,1.313V0h-2.562V-4.461a4.2,4.2,0,0,1,1.2-3.117,4.178,4.178,0,0,1,3.1-1.187,4.178,4.178,0,0,1,3.1,1.188,4.2,4.2,0,0,1,1.2,3.117ZM152.4,0h-2.562V-4.406A2.162,2.162,0,0,0,149.4-5.93a1.779,1.779,0,0,0-1.3-.43,1.779,1.779,0,0,0-1.3.43,2.17,2.17,0,0,0-.445,1.547,2.332,2.332,0,0,0,.445,1.547,1.779,1.779,0,0,0,1.3.43,3.365,3.365,0,0,0,.992-.133V.094a7.747,7.747,0,0,1-.992.063,4.194,4.194,0,0,1-3.1-1.18,4.708,4.708,0,0,1-1.2-3.359A4.514,4.514,0,0,1,145-7.734a4.542,4.542,0,0,1,3.1-1.031,4.542,4.542,0,0,1,3.1,1.031,4.582,4.582,0,0,1,1.2,3.352Zm10.273,0V-2.562H162.1a1.779,1.779,0,0,1-1.3-.43,1.761,1.761,0,0,1-.445-1.281V-6.289h2.328v-2.32h-2.328v-3.023l-2.562.781V-4.3A4.277,4.277,0,0,0,159-1.18,4.183,4.183,0,0,0,162.091,0Zm6.484-12.039a1.394,1.394,0,0,1,1.023.422,1.394,1.394,0,0,1,.422,1.023,1.384,1.384,0,0,1-.422,1.016,1.394,1.394,0,0,1-1.023.422,1.384,1.384,0,0,1-1.016-.422,1.384,1.384,0,0,1-.422-1.016,1.394,1.394,0,0,1,.422-1.023A1.384,1.384,0,0,1,169.161-12.039ZM170.442,0h-2.562V-8.375h2.563Zm9.625-6.367a1.967,1.967,0,0,0-1.422.469A2.227,2.227,0,0,0,178.16-4.3a2.21,2.21,0,0,0,.484,1.594,1.967,1.967,0,0,0,1.422.469,1.967,1.967,0,0,0,1.422-.469,2.21,2.21,0,0,0,.484-1.594,2.227,2.227,0,0,0-.484-1.594A1.967,1.967,0,0,0,180.067-6.367Zm-3.1-1.211a4.178,4.178,0,0,1,3.1-1.187,4.178,4.178,0,0,1,3.1,1.188,4.407,4.407,0,0,1,1.2,3.273,4.434,4.434,0,0,1-1.2,3.281,4.194,4.194,0,0,1-3.1,1.18,4.194,4.194,0,0,1-3.1-1.18,4.434,4.434,0,0,1-1.2-3.281A4.407,4.407,0,0,1,176.965-7.578ZM198.074,0h-2.562V-4.461a1.8,1.8,0,0,0-.445-1.312,1.779,1.779,0,0,0-1.3-.43,1.779,1.779,0,0,0-1.3.43,1.8,1.8,0,0,0-.445,1.313V0h-2.562V-4.461a4.2,4.2,0,0,1,1.2-3.117,4.178,4.178,0,0,1,3.1-1.187,4.178,4.178,0,0,1,3.1,1.188,4.2,4.2,0,0,1,1.2,3.117Zm12.242-8.609h-4.43a2.769,2.769,0,0,0-1.984.82,2.665,2.665,0,0,0-.812,1.969,2.313,2.313,0,0,0,.8,1.828,2.923,2.923,0,0,0,1.992.688h2a.52.52,0,0,1,.359.133.5.5,0,0,1,.156.391q0,.453-.523.453h-4.547V0h4.7a2.687,2.687,0,0,0,1.961-.828,2.672,2.672,0,0,0,.813-1.961,2.313,2.313,0,0,0-.8-1.828A2.923,2.923,0,0,0,208-5.3h-2a.52.52,0,0,1-.359-.133.489.489,0,0,1-.156-.383.425.425,0,0,1,.164-.359.564.564,0,0,1,.352-.1h4.313Z" transform="translate(-10560.755 999.787)" fill="#3db1f2"/>
    </g>
    <path id="Path_8875" data-name="Path 8875" d="M0,0H211.812" transform="translate(-10561.255 1007.098)" fill="none" stroke="#dedede" stroke-width="0.5"/>
  </g>
</svg>
