<svg xmlns="http://www.w3.org/2000/svg" xmlns:xlink="http://www.w3.org/1999/xlink" width="259.856" height="52.986" viewBox="0 0 259.856 52.986">
  <defs>
    <clipPath id="clip-path">
      <path id="Path_7900" data-name="Path 7900" d="M0,30.783a13.876,13.876,0,0,0,26.134,6.506H17a7.312,7.312,0,1,1,.256-13.011h8.876A13.876,13.876,0,0,0,0,30.783" transform="translate(0 -16.905)" fill="#3db1f2"/>
    </clipPath>
    <clipPath id="clip-path-2">
      <path id="Path_7901" data-name="Path 7901" d="M25.408,0A3.063,3.063,0,0,0,23.26,1.08,3.06,3.06,0,0,0,22.6,3.34l.062,5.809H28.2l.011-1.009A1.513,1.513,0,0,1,29.655,6.52h3.309c7.495-.437,7.12,7.168,7.12,7.168,0,6.671-4.863,6.759-4.863,6.759L22.6,20.476v3.81a2.771,2.771,0,0,0,2.562,2.556H36.5a10.97,10.97,0,0,0,5.547-2.913,11.612,11.612,0,0,0,2.868-5.019A18.236,18.236,0,0,0,45.58,14C45.768.659,34.963,0,34.963,0Z" transform="translate(-22.579)" fill="#3db1f2"/>
    </clipPath>
  </defs>
  <g id="Group_2338" data-name="Group 2338" transform="translate(-78.667 -11053.5)">
    <path id="If_the_path_is_beaut" data-name="If the path is beaut" d="M.854,2.827H6.084v.879H1.8V5.884h3.96v.83H1.8V9.146H6.157V10H.854Zm8.32,1.943h.869v.742a2.921,2.921,0,0,1,.566-.562,1.7,1.7,0,0,1,.986-.3,1.552,1.552,0,0,1,1.006.308,1.608,1.608,0,0,1,.391.518,1.9,1.9,0,0,1,.688-.623,1.92,1.92,0,0,1,.889-.2,1.453,1.453,0,0,1,1.436.762,2.49,2.49,0,0,1,.205,1.1V10H15.3V6.367a.846.846,0,0,0-.261-.718,1.034,1.034,0,0,0-.637-.2,1.265,1.265,0,0,0-.891.347,1.522,1.522,0,0,0-.374,1.157V10h-.894V6.587a1.773,1.773,0,0,0-.127-.776.774.774,0,0,0-.747-.366,1.289,1.289,0,0,0-.906.386,1.891,1.891,0,0,0-.408,1.4V10H9.174ZM19.3,2.8h.854v2.6a1.915,1.915,0,0,1,1.558-.771,2.037,2.037,0,0,1,1.584.671,2.86,2.86,0,0,1,.608,1.98,3.4,3.4,0,0,1-.6,2.061,1.948,1.948,0,0,1-1.665.82,1.706,1.706,0,0,1-1.006-.288,2.429,2.429,0,0,1-.522-.547V10H19.3ZM21.581,9.39a1.174,1.174,0,0,0,1.067-.566A2.789,2.789,0,0,0,23,7.329a2.452,2.452,0,0,0-.354-1.367,1.166,1.166,0,0,0-1.042-.542,1.454,1.454,0,0,0-1.052.444A2,2,0,0,0,20.1,7.329a3.237,3.237,0,0,0,.186,1.2A1.282,1.282,0,0,0,21.581,9.39ZM26.81,4.771h.835v.9a2,2,0,0,1,.5-.642,1.3,1.3,0,0,1,.923-.378l.083,0,.2.02v.928a1.313,1.313,0,0,0-.144-.02q-.066,0-.144,0a1.254,1.254,0,0,0-1.021.427,1.491,1.491,0,0,0-.356.984V10H26.81ZM32.65,8.608a.724.724,0,0,0,.278.6,1.032,1.032,0,0,0,.659.22,2,2,0,0,0,.9-.215,1.209,1.209,0,0,0,.732-1.167V7.339a1.5,1.5,0,0,1-.415.171,3.537,3.537,0,0,1-.5.1l-.532.068a2.036,2.036,0,0,0-.718.2A.78.78,0,0,0,32.65,8.608Zm2.129-1.777a.477.477,0,0,0,.405-.254.773.773,0,0,0,.059-.337.714.714,0,0,0-.32-.652,1.716,1.716,0,0,0-.916-.2,1.163,1.163,0,0,0-.977.371,1.221,1.221,0,0,0-.21.61H32a1.51,1.51,0,0,1,.627-1.345,2.576,2.576,0,0,1,1.4-.378,2.846,2.846,0,0,1,1.5.352A1.193,1.193,0,0,1,36.1,6.089V9.1a.386.386,0,0,0,.056.22.271.271,0,0,0,.237.083q.059,0,.132-.007t.156-.022v.649a2.448,2.448,0,0,1-.312.073,2.284,2.284,0,0,1-.293.015.723.723,0,0,1-.659-.322,1.244,1.244,0,0,1-.151-.483,2.236,2.236,0,0,1-.771.61,2.386,2.386,0,0,1-1.108.259,1.648,1.648,0,0,1-1.189-.442,1.468,1.468,0,0,1-.461-1.106A1.424,1.424,0,0,1,32.186,7.5a2.161,2.161,0,0,1,1.191-.493Zm6.635-2.212a2.28,2.28,0,0,1,1.438.43,2.058,2.058,0,0,1,.667,1.479h-.854a1.577,1.577,0,0,0-.356-.8,1.126,1.126,0,0,0-.894-.32,1.235,1.235,0,0,0-1.2.82,3.259,3.259,0,0,0-.234,1.313,2.472,2.472,0,0,0,.332,1.323,1.287,1.287,0,0,0,1.912.2,1.839,1.839,0,0,0,.442-.916h.854a2.294,2.294,0,0,1-.732,1.521,2.285,2.285,0,0,1-1.5.481,2,2,0,0,1-1.636-.75,2.869,2.869,0,0,1-.61-1.873,3.155,3.155,0,0,1,.669-2.144A2.162,2.162,0,0,1,41.414,4.619Zm7.021.034a2.385,2.385,0,0,1,1.079.261,1.99,1.99,0,0,1,.8.676,2.333,2.333,0,0,1,.352.923,6.038,6.038,0,0,1,.078,1.152H46.907a2.237,2.237,0,0,0,.376,1.277,1.259,1.259,0,0,0,1.089.481,1.408,1.408,0,0,0,1.1-.454,1.531,1.531,0,0,0,.332-.61h.864A1.82,1.82,0,0,1,50.44,9a2.284,2.284,0,0,1-.432.579,2.048,2.048,0,0,1-.991.527,3.011,3.011,0,0,1-.718.078,2.2,2.2,0,0,1-1.655-.71,2.764,2.764,0,0,1-.679-1.99,3.006,3.006,0,0,1,.684-2.046A2.255,2.255,0,0,1,48.435,4.653Zm1.4,2.314a2.277,2.277,0,0,0-.249-.913,1.276,1.276,0,0,0-1.206-.635,1.337,1.337,0,0,0-1.016.437,1.651,1.651,0,0,0-.435,1.111Zm11.62-4.336a2.939,2.939,0,0,1,2.114.718,2.535,2.535,0,0,1,.835,1.631h-.947a1.971,1.971,0,0,0-.642-1.1,2.035,2.035,0,0,0-1.35-.405,2.165,2.165,0,0,0-1.711.745A3.394,3.394,0,0,0,59.1,6.5a3.316,3.316,0,0,0,.588,2.043,2.056,2.056,0,0,0,1.755.784,1.854,1.854,0,0,0,1.636-.825,3.138,3.138,0,0,0,.444-1.143h.947a3.237,3.237,0,0,1-.84,1.9,2.988,2.988,0,0,1-2.3.923,3.042,3.042,0,0,1-2.1-.757,3.944,3.944,0,0,1-1.118-3.091,3.948,3.948,0,0,1,.84-2.6A3.068,3.068,0,0,1,61.457,2.632Zm5.966.2H68.3V10h-.879Zm6.132,6.606a1.212,1.212,0,0,0,1.2-.662A3.3,3.3,0,0,0,75.079,7.3a2.621,2.621,0,0,0-.234-1.191,1.318,1.318,0,0,0-1.279-.723A1.262,1.262,0,0,0,72.394,6a2.852,2.852,0,0,0-.366,1.484,2.481,2.481,0,0,0,.366,1.392A1.29,1.29,0,0,0,73.556,9.434Zm.034-4.814a2.368,2.368,0,0,1,1.709.674A2.631,2.631,0,0,1,76,7.275a3.4,3.4,0,0,1-.615,2.09,2.226,2.226,0,0,1-1.909.825,2.155,2.155,0,0,1-1.714-.73,2.883,2.883,0,0,1-.635-1.96,3.119,3.119,0,0,1,.669-2.1A2.245,2.245,0,0,1,73.59,4.619Zm6.191.151V8.242a1.464,1.464,0,0,0,.127.654.886.886,0,0,0,.874.469,1.235,1.235,0,0,0,1.25-.82,3.255,3.255,0,0,0,.181-1.206V4.771h.879V10h-.83l.01-.771a1.773,1.773,0,0,1-.425.5,1.869,1.869,0,0,1-1.221.41A1.575,1.575,0,0,1,79.1,9.395a2.225,2.225,0,0,1-.22-1.069V4.771Zm7.1,2.676a2.592,2.592,0,0,0,.356,1.406,1.249,1.249,0,0,0,1.143.566,1.2,1.2,0,0,0,1-.525,2.479,2.479,0,0,0,.393-1.506,2.227,2.227,0,0,0-.405-1.467,1.264,1.264,0,0,0-1-.476,1.321,1.321,0,0,0-1.077.508A2.326,2.326,0,0,0,86.881,7.446ZM88.2,4.678a1.861,1.861,0,0,1,1.006.254,2.363,2.363,0,0,1,.532.513V2.8h.845V10H89.8V9.272a1.9,1.9,0,0,1-.728.7,2.082,2.082,0,0,1-.962.215,1.948,1.948,0,0,1-1.514-.735,2.873,2.873,0,0,1-.64-1.956,3.376,3.376,0,0,1,.583-1.98A1.91,1.91,0,0,1,88.2,4.678ZM98.477,2.827h1.392l2.061,6.064,2.046-6.064h1.377V10h-.923V5.767q0-.22.01-.728t.01-1.089L102.4,10h-.962L99.38,3.95v.22q0,.264.012.8t.012.793V10h-.928Zm10.976,1.943V8.242a1.464,1.464,0,0,0,.127.654.886.886,0,0,0,.874.469,1.235,1.235,0,0,0,1.25-.82,3.255,3.255,0,0,0,.181-1.206V4.771h.879V10h-.83l.01-.771a1.773,1.773,0,0,1-.425.5,1.869,1.869,0,0,1-1.221.41,1.575,1.575,0,0,1-1.523-.747,2.225,2.225,0,0,1-.22-1.069V4.771Zm6.567-1.943h.879V10h-.879Zm4.233.483h.889v1.46h.835v.718h-.835V8.9a.369.369,0,0,0,.186.366.789.789,0,0,0,.342.054l.137,0q.073,0,.171-.012V10a1.962,1.962,0,0,1-.315.063,2.994,2.994,0,0,1-.354.02.954.954,0,0,1-.835-.315,1.4,1.4,0,0,1-.22-.818V5.488h-.708V4.771h.708Zm4.463,1.484h.894V10h-.894Zm0-1.968h.894v1h-.894Zm4.511,1.943,1.4,4.258,1.46-4.258h.962L131.072,10h-.937l-1.929-5.229Zm8.608-.117a2.385,2.385,0,0,1,1.079.261,1.99,1.99,0,0,1,.8.676,2.333,2.333,0,0,1,.352.923,6.038,6.038,0,0,1,.078,1.152h-3.833a2.237,2.237,0,0,0,.376,1.277,1.259,1.259,0,0,0,1.089.481,1.408,1.408,0,0,0,1.1-.454,1.531,1.531,0,0,0,.332-.61h.864a1.82,1.82,0,0,1-.227.642,2.284,2.284,0,0,1-.432.579,2.048,2.048,0,0,1-.991.527,3.011,3.011,0,0,1-.718.078,2.2,2.2,0,0,1-1.655-.71,2.764,2.764,0,0,1-.679-1.99,3.006,3.006,0,0,1,.684-2.046A2.255,2.255,0,0,1,137.835,4.653Zm1.4,2.314a2.277,2.277,0,0,0-.249-.913,1.276,1.276,0,0,0-1.206-.635,1.337,1.337,0,0,0-1.016.437,1.651,1.651,0,0,0-.435,1.111Zm3.867-2.2h.835v.9a2,2,0,0,1,.5-.642,1.3,1.3,0,0,1,.923-.378l.083,0,.2.02v.928a1.313,1.313,0,0,0-.144-.02q-.066,0-.144,0a1.254,1.254,0,0,0-1.021.427,1.491,1.491,0,0,0-.356.984V10H143.1Zm5.688,3.589a1.278,1.278,0,0,0,.22.674,1.381,1.381,0,0,0,1.152.425,1.7,1.7,0,0,0,.859-.212.705.705,0,0,0,.371-.657.562.562,0,0,0-.3-.513,3.541,3.541,0,0,0-.752-.249l-.7-.176a3.406,3.406,0,0,1-.986-.371,1.109,1.109,0,0,1-.566-.986,1.507,1.507,0,0,1,.535-1.2,2.133,2.133,0,0,1,1.438-.459,2,2,0,0,1,1.7.693,1.5,1.5,0,0,1,.317.947h-.83a1.017,1.017,0,0,0-.21-.542A1.339,1.339,0,0,0,150,5.386a1.255,1.255,0,0,0-.754.19.6.6,0,0,0-.256.5.619.619,0,0,0,.337.547,2.025,2.025,0,0,0,.576.215l.581.142a4.493,4.493,0,0,1,1.27.444,1.177,1.177,0,0,1,.513,1.06,1.615,1.615,0,0,1-.53,1.206,2.255,2.255,0,0,1-1.614.508,2.165,2.165,0,0,1-1.653-.53,2,2,0,0,1-.52-1.311Zm8.515-3.706a2.385,2.385,0,0,1,1.079.261,1.99,1.99,0,0,1,.8.676,2.333,2.333,0,0,1,.352.923,6.038,6.038,0,0,1,.078,1.152h-3.833a2.237,2.237,0,0,0,.376,1.277,1.259,1.259,0,0,0,1.089.481,1.408,1.408,0,0,0,1.1-.454,1.531,1.531,0,0,0,.332-.61h.864a1.82,1.82,0,0,1-.227.642,2.284,2.284,0,0,1-.432.579,2.048,2.048,0,0,1-.991.527,3.011,3.011,0,0,1-.718.078,2.2,2.2,0,0,1-1.655-.71,2.764,2.764,0,0,1-.679-1.99,3.006,3.006,0,0,1,.684-2.046A2.255,2.255,0,0,1,157.306,4.653Zm1.4,2.314a2.277,2.277,0,0,0-.249-.913,1.276,1.276,0,0,0-1.206-.635,1.337,1.337,0,0,0-1.016.437,1.651,1.651,0,0,0-.435,1.111Z" transform="translate(178.912 11096.286)" fill="#fff"/>
    <g id="Group_1479" data-name="Group 1479" transform="translate(78.667 11053.5)">
      <g id="Group_1480" data-name="Group 1480" transform="translate(0 11.337)">
        <g id="Group_1479-2" data-name="Group 1479" clip-path="url(#clip-path)">
          <rect id="Rectangle_4803" data-name="Rectangle 4803" width="26.134" height="27.756" transform="translate(0 0)" fill="#3db1f2"/>
        </g>
      </g>
      <g id="Group_1482" data-name="Group 1482" transform="translate(15.143)">
        <g id="Group_1481" data-name="Group 1481" clip-path="url(#clip-path-2)">
          <rect id="Rectangle_4804" data-name="Rectangle 4804" width="23.307" height="26.841" transform="translate(-0.118 0)" fill="#3db1f2"/>
        </g>
      </g>
    </g>
    <path id="Path_10494" data-name="Path 10494" d="M8.742-11.562v2.547H7.594a8.088,8.088,0,0,0-3.586.469,1.575,1.575,0,0,0-.6.766,5.394,5.394,0,0,0-.3,2,5.726,5.726,0,0,0,.258,1.914,1.655,1.655,0,0,0,.539.781q.711.547,3.688.539H8.742V0H7.594A22.891,22.891,0,0,1,4.734-.125,5.1,5.1,0,0,1,2.344-1.07,4.136,4.136,0,0,1,.977-2.977a8.122,8.122,0,0,1-.43-2.8A7.864,7.864,0,0,1,1.039-8.75a4.058,4.058,0,0,1,1.578-1.93,5.385,5.385,0,0,1,2.289-.781,24.966,24.966,0,0,1,2.688-.1ZM16.453,0H13.89V-11.633h2.563Zm9.555-6.367a1.967,1.967,0,0,0-1.422.469A2.227,2.227,0,0,0,24.1-4.3a2.21,2.21,0,0,0,.484,1.594,1.967,1.967,0,0,0,1.422.469,1.967,1.967,0,0,0,1.422-.469A2.21,2.21,0,0,0,27.914-4.3,2.227,2.227,0,0,0,27.429-5.9,1.967,1.967,0,0,0,26.007-6.367Zm-3.1-1.211a4.178,4.178,0,0,1,3.1-1.187,4.178,4.178,0,0,1,3.1,1.188,4.407,4.407,0,0,1,1.2,3.273,4.434,4.434,0,0,1-1.2,3.281,4.194,4.194,0,0,1-3.1,1.18,4.194,4.194,0,0,1-3.1-1.18A4.434,4.434,0,0,1,21.7-4.3,4.407,4.407,0,0,1,22.906-7.578ZM41.453-8.609h2.563v4.461a4.228,4.228,0,0,1-1.2,3.125,4.194,4.194,0,0,1-3.1,1.18,4.194,4.194,0,0,1-3.1-1.18,4.228,4.228,0,0,1-1.2-3.125V-8.609h2.563v4.461a1.78,1.78,0,0,0,.445,1.313,1.779,1.779,0,0,0,1.3.43,1.779,1.779,0,0,0,1.3-.43,1.78,1.78,0,0,0,.445-1.312ZM57.7-11.633H55.14v7.359a2,2,0,0,1-.445,1.438,1.779,1.779,0,0,1-1.3.43,1.779,1.779,0,0,1-1.3-.43A2.022,2.022,0,0,1,51.656-4.3,2.039,2.039,0,0,1,52.1-5.773a1.779,1.779,0,0,1,1.3-.43,3.19,3.19,0,0,1,.992.141V-8.7a7.747,7.747,0,0,0-.992-.062,4.178,4.178,0,0,0-3.1,1.188,4.407,4.407,0,0,0-1.2,3.273,4.434,4.434,0,0,0,1.2,3.281A4.194,4.194,0,0,0,53.4.156a4.194,4.194,0,0,0,3.1-1.18A4.485,4.485,0,0,0,57.7-4.3Zm16.75,9.07h1.234a2.125,2.125,0,0,0,1.43-.516,2.886,2.886,0,0,0,.82-1.289,4.449,4.449,0,0,0,.227-1.445,4.52,4.52,0,0,0-.227-1.453,2.83,2.83,0,0,0-.82-1.281,2.106,2.106,0,0,0-1.43-.523H73.7V0H71.14V-9.141a2.394,2.394,0,0,1,.727-1.758,2.407,2.407,0,0,1,1.766-.734h2.055a4.563,4.563,0,0,1,3,1.031,5.417,5.417,0,0,1,1.672,2.523,7.211,7.211,0,0,1,.359,2.266,7.139,7.139,0,0,1-.359,2.258,5.417,5.417,0,0,1-1.672,2.523,4.563,4.563,0,0,1-3,1.031H74.452ZM91.671-5.75a1.609,1.609,0,0,0-1.109-.656,2.016,2.016,0,0,0-1.219.227,1.788,1.788,0,0,0-.742.766,2.158,2.158,0,0,0-.266,1.055,1.944,1.944,0,0,0,.445,1.3,1.8,1.8,0,0,0,1.43.586h3.234V0H90.21a4.142,4.142,0,0,1-3.484-1.578,4.454,4.454,0,0,1-.9-2.8,4.614,4.614,0,0,1,.648-2.453,3.917,3.917,0,0,1,1.953-1.609,4.922,4.922,0,0,1,1.781-.312,4.314,4.314,0,0,1,2.461.789,4.3,4.3,0,0,1,1.508,1.7,1.957,1.957,0,0,1,.211,1.328,1.134,1.134,0,0,1-.883.828l-2.992.852A.9.9,0,0,1,90.2-3.2a1.01,1.01,0,0,1-.742-.3,1.014,1.014,0,0,1-.3-.734,1,1,0,0,1,.227-.648,1,1,0,0,1,.563-.367Zm14.687-2.859h-4.43a2.769,2.769,0,0,0-1.984.82,2.665,2.665,0,0,0-.812,1.969,2.313,2.313,0,0,0,.8,1.828,2.923,2.923,0,0,0,1.992.688h2a.52.52,0,0,1,.359.133.5.5,0,0,1,.156.391q0,.453-.523.453H99.374V0h4.7a2.687,2.687,0,0,0,1.961-.828,2.672,2.672,0,0,0,.813-1.961,2.313,2.313,0,0,0-.8-1.828,2.923,2.923,0,0,0-1.992-.687h-2a.52.52,0,0,1-.359-.133.489.489,0,0,1-.156-.383.425.425,0,0,1,.164-.359.564.564,0,0,1,.352-.1h4.313ZM116.866,0V-2.562h-.578a1.779,1.779,0,0,1-1.3-.43,1.761,1.761,0,0,1-.445-1.281V-6.289h2.328v-2.32h-2.328v-3.023l-2.562.781V-4.3a4.277,4.277,0,0,0,1.2,3.125A4.183,4.183,0,0,0,116.28,0Zm6.484-12.039a1.394,1.394,0,0,1,1.023.422,1.394,1.394,0,0,1,.422,1.023,1.384,1.384,0,0,1-.422,1.016,1.394,1.394,0,0,1-1.023.422,1.384,1.384,0,0,1-1.016-.422,1.384,1.384,0,0,1-.422-1.016,1.394,1.394,0,0,1,.422-1.023A1.384,1.384,0,0,1,123.35-12.039ZM124.631,0h-2.562V-8.375h2.563Zm14.086,0h-2.562V-4.461a1.8,1.8,0,0,0-.445-1.312,1.779,1.779,0,0,0-1.3-.43,1.779,1.779,0,0,0-1.3.43,1.8,1.8,0,0,0-.445,1.313V0h-2.562V-4.461a4.2,4.2,0,0,1,1.2-3.117,4.178,4.178,0,0,1,3.1-1.187,4.178,4.178,0,0,1,3.1,1.188,4.2,4.2,0,0,1,1.2,3.117ZM152.4,0h-2.562V-4.406A2.162,2.162,0,0,0,149.4-5.93a1.779,1.779,0,0,0-1.3-.43,1.779,1.779,0,0,0-1.3.43,2.17,2.17,0,0,0-.445,1.547,2.332,2.332,0,0,0,.445,1.547,1.779,1.779,0,0,0,1.3.43,3.365,3.365,0,0,0,.992-.133V.094a7.747,7.747,0,0,1-.992.063,4.194,4.194,0,0,1-3.1-1.18,4.708,4.708,0,0,1-1.2-3.359A4.514,4.514,0,0,1,145-7.734a4.542,4.542,0,0,1,3.1-1.031,4.542,4.542,0,0,1,3.1,1.031,4.582,4.582,0,0,1,1.2,3.352Zm10.273,0V-2.562H162.1a1.779,1.779,0,0,1-1.3-.43,1.761,1.761,0,0,1-.445-1.281V-6.289h2.328v-2.32h-2.328v-3.023l-2.562.781V-4.3A4.277,4.277,0,0,0,159-1.18,4.183,4.183,0,0,0,162.091,0Zm6.484-12.039a1.394,1.394,0,0,1,1.023.422,1.394,1.394,0,0,1,.422,1.023,1.384,1.384,0,0,1-.422,1.016,1.394,1.394,0,0,1-1.023.422,1.384,1.384,0,0,1-1.016-.422,1.384,1.384,0,0,1-.422-1.016,1.394,1.394,0,0,1,.422-1.023A1.384,1.384,0,0,1,169.161-12.039ZM170.442,0h-2.562V-8.375h2.563Zm9.625-6.367a1.967,1.967,0,0,0-1.422.469A2.227,2.227,0,0,0,178.16-4.3a2.21,2.21,0,0,0,.484,1.594,1.967,1.967,0,0,0,1.422.469,1.967,1.967,0,0,0,1.422-.469,2.21,2.21,0,0,0,.484-1.594,2.227,2.227,0,0,0-.484-1.594A1.967,1.967,0,0,0,180.067-6.367Zm-3.1-1.211a4.178,4.178,0,0,1,3.1-1.187,4.178,4.178,0,0,1,3.1,1.188,4.407,4.407,0,0,1,1.2,3.273,4.434,4.434,0,0,1-1.2,3.281,4.194,4.194,0,0,1-3.1,1.18,4.194,4.194,0,0,1-3.1-1.18,4.434,4.434,0,0,1-1.2-3.281A4.407,4.407,0,0,1,176.965-7.578ZM198.074,0h-2.562V-4.461a1.8,1.8,0,0,0-.445-1.312,1.779,1.779,0,0,0-1.3-.43,1.779,1.779,0,0,0-1.3.43,1.8,1.8,0,0,0-.445,1.313V0h-2.562V-4.461a4.2,4.2,0,0,1,1.2-3.117,4.178,4.178,0,0,1,3.1-1.187,4.178,4.178,0,0,1,3.1,1.188,4.2,4.2,0,0,1,1.2,3.117Zm12.242-8.609h-4.43a2.769,2.769,0,0,0-1.984.82,2.665,2.665,0,0,0-.812,1.969,2.313,2.313,0,0,0,.8,1.828,2.923,2.923,0,0,0,1.992.688h2a.52.52,0,0,1,.359.133.5.5,0,0,1,.156.391q0,.453-.523.453h-4.547V0h4.7a2.687,2.687,0,0,0,1.961-.828,2.672,2.672,0,0,0,.813-1.961,2.313,2.313,0,0,0-.8-1.828A2.923,2.923,0,0,0,208-5.3h-2a.52.52,0,0,1-.359-.133.489.489,0,0,1-.156-.383.425.425,0,0,1,.164-.359.564.564,0,0,1,.352-.1h4.313Z" transform="translate(125.912 11085.5)" fill="#3db1f2"/>
    <path id="Path_8875" data-name="Path 8875" d="M211.812.25H0v-.5H211.812Z" transform="translate(125.412 11092.81)" fill="#fff"/>
  </g>
</svg>
