<svg xmlns="http://www.w3.org/2000/svg" width="36.083" height="36.083" viewBox="0 0 36.083 36.083">
  <g id="Group_2233" data-name="Group 2233" transform="translate(-142 -9453.244)">
    <g id="Group_2230" data-name="Group 2230" transform="translate(142 9453.244)">
      <path id="Path_10122" data-name="Path 10122" d="M31.92,49.852A18.041,18.041,0,1,1,49.962,31.812,18.061,18.061,0,0,1,31.92,49.852Zm0-34.643a16.6,16.6,0,1,0,16.6,16.6A16.621,16.621,0,0,0,31.92,15.21Z" transform="translate(-13.878 -13.77)" fill="#fff"/>
    </g>
    <g id="_3066961_circle_facebook_friendship_high_quality_media_icon" data-name="3066961_circle_facebook_friendship_high quality_media_icon" transform="translate(145.806 9453.244)">
      <g id="Facebook" transform="translate(7.663 6.349)">
        <path id="Facebook_1_" d="M362.842,207.528V203.86h-1.377c-.4,0-.791,0-1.187,0-.349,0-.7,0-1.046,0a5.031,5.031,0,0,0-1.53.194,4,4,0,0,0-1.332.76,5.027,5.027,0,0,0-.623.621,3.6,3.6,0,0,0-.214.293,4.918,4.918,0,0,0-.489.993c-.03.08-.059.16-.086.24a5.665,5.665,0,0,0-.21,1.849v3.1h-3.5v4.038h3.461v10.13h4V215.856l3.632.049.49-3.97-4.1-.008v-3.064s-.009-1.307,1.1-1.325Z" transform="translate(-351.252 -203.859)" fill="#fff"/>
      </g>
    </g>
  </g>
</svg>
