<svg xmlns="http://www.w3.org/2000/svg" width="84.185" height="60.028" viewBox="0 0 84.185 60.028">
  <g id="Group_2006" data-name="Group 2006" transform="translate(-109 -3076)">
    <g id="artificial_intelligence" data-name="artificial intelligence" transform="translate(109 3076)">
      <path id="Path_8849" data-name="Path 8849" d="M78.02,113.766a6.177,6.177,0,0,0-6.043,4.933H61.071a2.042,2.042,0,0,1-1.62-.791l-8-10.245a1.232,1.232,0,0,0-.972-.474H47.622a10.986,10.986,0,0,0,.566-2.466H59.862a7.81,7.81,0,1,0,0-2.466H48.188a10.985,10.985,0,0,0-.566-2.466h2.856a1.232,1.232,0,0,0,.972-.474l8-10.245a2.042,2.042,0,0,1,1.62-.791H71.977a6.166,6.166,0,1,0,0-2.466H61.071a4.494,4.494,0,0,0-3.563,1.738l-7.631,9.772H46.383A11.191,11.191,0,0,0,43.6,94.461L49,80.548a2.041,2.041,0,0,1,1.916-1.315h4.91a4.522,4.522,0,1,0,0-2.466h-4.9A4.494,4.494,0,0,0,46.7,79.652l-5.27,13.593a11.026,11.026,0,0,0-3.035-.784V81.292a7.81,7.81,0,0,0-15.292-2.216A11.1,11.1,0,0,0,8.221,89.513q0,.477.043.957a14.387,14.387,0,0,0,0,26.039q-.043.482-.043.957A11.1,11.1,0,0,0,23.095,127.9a7.81,7.81,0,0,0,15.292-2.216V114.517a11.027,11.027,0,0,0,3.048-.784l5.27,13.6a4.494,4.494,0,0,0,4.216,2.886h4.91a4.522,4.522,0,1,0,0-2.466h-4.91a2.041,2.041,0,0,1-1.916-1.315l-5.4-13.912a11.191,11.191,0,0,0,2.779-2.863h3.494l7.631,9.772a4.494,4.494,0,0,0,3.563,1.738H71.977a6.166,6.166,0,1,0,6.043-7.4ZM67.579,98.145a5.344,5.344,0,1,1-5.344,5.344A5.344,5.344,0,0,1,67.579,98.145Zm10.441-14.8a3.7,3.7,0,1,1-3.7,3.7,3.7,3.7,0,0,1,3.7-3.7Zm-17.84-7.4A2.055,2.055,0,1,1,58.124,78,2.055,2.055,0,0,1,60.18,75.948Zm0,50.972a2.055,2.055,0,1,1-2.055,2.055,2.055,2.055,0,0,1,2.055-2.055Zm-29.6,4.111a5.355,5.355,0,0,1-5.327-4.944v-4.035a1.233,1.233,0,1,0-2.466,0v3.316a8.624,8.624,0,0,1-11.967-9.41,1.233,1.233,0,0,0-.766-1.363,11.919,11.919,0,0,1,0-22.211,1.233,1.233,0,0,0,.766-1.363,8.627,8.627,0,0,1,11.967-9.41v3.336a1.233,1.233,0,1,0,2.466,0V80.892a5.344,5.344,0,0,1,10.671.4V92.461a11.1,11.1,0,0,0,0,22.056v11.169a5.35,5.35,0,0,1-5.344,5.344Zm6.577-18.909a8.632,8.632,0,1,1,8.632-8.632A8.632,8.632,0,0,1,37.16,112.122Zm40.86,11.51a3.7,3.7,0,1,1,3.7-3.7A3.7,3.7,0,0,1,78.02,123.631Z" transform="translate(0.001 -73.478)" fill="#79ccff"/>
      <path id="Path_8850" data-name="Path 8850" d="M73.382,204.118a7.893,7.893,0,0,0,4.4,2.05,1.078,1.078,0,0,0,.164.012,1.233,1.233,0,0,0,.164-2.457c-4.6-.605-5.441-5.868-5.475-6.105a1.233,1.233,0,0,0-2.442.349,11.181,11.181,0,0,0,1.61,4.244c-1.061,1.07-2.568,3.086-1.953,5.242a1.233,1.233,0,0,0,1.186.894,1.2,1.2,0,0,0,.339-.048,1.232,1.232,0,0,0,.848-1.524C71.987,205.972,72.68,204.9,73.382,204.118Z" transform="translate(-58.241 -176.321)" fill="#79ccff"/>
      <path id="Path_8851" data-name="Path 8851" d="M199.733,233.5a1.233,1.233,0,0,0-1.233,1.233v4.933a1.233,1.233,0,0,0,2.466,0v-4.933A1.233,1.233,0,0,0,199.733,233.5Z" transform="translate(-165.861 -207.188)" fill="#79ccff"/>
      <path id="Path_8852" data-name="Path 8852" d="M239.733,233.5a1.233,1.233,0,0,0-1.233,1.233v4.933a1.233,1.233,0,0,0,2.466,0v-4.933A1.233,1.233,0,0,0,239.733,233.5Z" transform="translate(-199.284 -207.188)" fill="#79ccff"/>
      <path id="Path_8853" data-name="Path 8853" d="M100.519,296.7c-1.983-.209-6.153.862-7.744,6.395a1.233,1.233,0,1,0,2.371.681,6.2,6.2,0,0,1,3.081-4.173,4.385,4.385,0,0,1,2.045-.447,1.234,1.234,0,0,0,.247-2.455Z" transform="translate(-77.48 -259.974)" fill="#79ccff"/>
    </g>
  </g>
</svg>
