<svg xmlns="http://www.w3.org/2000/svg" xmlns:xlink="http://www.w3.org/1999/xlink" width="227.991" height="230" viewBox="0 0 227.991 230">
  <defs>
    <clipPath id="clip-path">
      <rect id="Rectangle_5937" data-name="Rectangle 5937" width="227.991" height="230" fill="none"/>
    </clipPath>
  </defs>
  <g id="Group_2892" data-name="Group 2892" transform="translate(0 0.156)">
    <g id="Group_2891" data-name="Group 2891" transform="translate(0 -0.156)">
      <g id="Group_2890" data-name="Group 2890" clip-path="url(#clip-path)">
        <path id="Path_10770" data-name="Path 10770" d="M226.956,115.758c0,63.932-50.806,115.758-113.478,115.758S0,179.69,0,115.758,50.806,0,113.478,0,226.956,51.827,226.956,115.758" transform="translate(-0.014 -0.825)"/>
        <path id="Path_10771" data-name="Path 10771" d="M118.565,216.931C66.422,216.931,24,173.657,24,120.465S66.422,24,118.565,24s94.565,43.274,94.565,96.465-42.422,96.465-94.565,96.465" transform="translate(-5.101 -5.532)" fill="#fff"/>
        <path id="Path_10772" data-name="Path 10772" d="M23.716,76.507l9.234,1.41-.764,1.4-2.331-.348-1.764,3.24,1.533,1.814-.74,1.359L22.79,78.207Zm.7,1.522-.029.053L27.2,81.317l1.429-2.624Z" transform="translate(-4.845 -15.83)" fill="#fff"/>
        <path id="Path_10773" data-name="Path 10773" d="M37.7,69.247l-6.986-2.265-.021.03,5.679,4.133-.836,1.2-7.114-5.177,1.369-1.957,7.122,2.468.013-.019-4.6-6.076L33.639,59.7l7.114,5.177-.837,1.2-5.669-4.125-.02.029,4.4,5.945Z" transform="translate(-6.038 -12.534)" fill="#fff"/>
        <path id="Path_10774" data-name="Path 10774" d="M45.6,53.885l-2.212,2.545L45.339,58.2l2.654-3.054.944.855-3.665,4.218L38.732,54.3l3.492-4.017.935.846-2.481,2.855L42.47,55.6l2.212-2.544Z" transform="translate(-8.224 -10.687)" fill="#fff"/>
        <path id="Path_10775" data-name="Path 10775" d="M52.678,47.194l-.1.092-1,.957,2.487,2.7L52.968,52l-5.984-6.5,2.43-2.329c1.615-1.547,2.854-1.266,3.791-.248a2.466,2.466,0,0,1,.4,3.1l4.057,1.48-1.18,1.13Zm-1.05-.644c.964-.923,1.222-1.671.489-2.468-.676-.736-1.289-.549-2.14.266l-1.05,1.006,1.851,2.011Z" transform="translate(-9.973 -9.079)" fill="#fff"/>
        <path id="Path_10776" data-name="Path 10776" d="M63.205,41.839l.745-.606.647.826-2.681,2.183-.646-.826.744-.606-4.161-5.317-.736.6-.646-.826,2.68-2.183.647.826-.753.613Z" transform="translate(-11.983 -7.706)" fill="#fff"/>
        <path id="Path_10777" data-name="Path 10777" d="M71.941,33.085l1.285-.748a3.169,3.169,0,0,1-1.135,4.507c-1.987,1.361-3.857.872-5.51-1.638-1.759-2.672-1.251-4.819.726-6.174a2.844,2.844,0,0,1,4.438.924l-1.2.951c-.959-1.435-1.841-1.314-2.592-.8-1.077.738-1.452,2.019-.052,4.147,1.247,1.9,2.365,2.285,3.531,1.486a1.8,1.8,0,0,0,.5-2.656" transform="translate(-13.899 -6.384)" fill="#fff"/>
        <path id="Path_10778" data-name="Path 10778" d="M79.684,22.088,86.7,28.369l-1.386.758L83.54,27.548l-3.2,1.75.327,2.372-1.344.735-1.317-9.4Zm-.22,1.664-.052.029.652,4.275,2.593-1.418Z" transform="translate(-16.548 -5.157)" fill="#fff"/>
        <path id="Path_10779" data-name="Path 10779" d="M86.5,18.809l1.291-.6.526,1.184.179,2.2-.6.1-.285-1.642-.467.216Z" transform="translate(-18.35 -4.397)" fill="#fff"/>
        <path id="Path_10780" data-name="Path 10780" d="M97.221,17.128a1.526,1.526,0,0,0-2.159-.945c-.869.336-1.225.85-.93,1.646.338.908,1.193.811,2.167.656,1.337-.206,2.926-.521,3.614,1.33.6,1.624-.2,3.092-2.06,3.81-1.971.762-3.294.39-4.179-1.307l1.4-.789a1.622,1.622,0,0,0,2.33.891c1.08-.417,1.407-1.115,1.12-1.888-.359-.965-1.318-.737-2.422-.557-1.3.2-2.785.388-3.439-1.372-.574-1.545.256-2.944,2.06-3.642a2.756,2.756,0,0,1,3.85,1.382Z" transform="translate(-19.617 -3.702)" fill="#fff"/>
        <path id="Path_10781" data-name="Path 10781" d="M115.779,14.2l-3.168.75.838,3.682-1.485.351-1.977-8.688L115.1,9.079l.283,1.243-3.632.86.585,2.568,3.167-.75Z" transform="translate(-23.327 -2.606)" fill="#fff"/>
        <path id="Path_10782" data-name="Path 10782" d="M124.573,7.582l4.485,8.348-1.556.227-1.138-2.1-3.594.527-.488,2.341-1.508.222,1.913-9.286Zm-.764,1.486-.059.009-.82,4.243,2.91-.427Z" transform="translate(-25.613 -2.312)" fill="#fff"/>
        <path id="Path_10783" data-name="Path 10783" d="M138.711,9.114c-.147-1.112-.706-1.632-1.764-1.582-.928.044-1.423.42-1.385,1.269.045.97.887,1.15,1.859,1.31,1.334.228,2.94.432,3.03,2.409.08,1.735-1.132,2.875-3.118,2.969-2.1.1-3.248-.673-3.573-2.566l1.571-.306a1.643,1.643,0,0,0,1.943,1.586c1.154-.055,1.676-.615,1.639-1.439-.048-1.031-1.029-1.119-2.133-1.3-1.3-.218-2.764-.513-2.85-2.393-.075-1.65,1.14-2.717,3.065-2.808A2.788,2.788,0,0,1,140.235,8.8Z" transform="translate(-28.366 -2.053)" fill="#fff"/>
        <path id="Path_10784" data-name="Path 10784" d="M148.251,7.647l-2.571-.106.051-1.275,6.678.276-.05,1.274-2.583-.106-.3,7.638-1.524-.063Z" transform="translate(-30.892 -2.054)" fill="#fff"/>
        <path id="Path_10785" data-name="Path 10785" d="M162.8,12.612l-3.306-.432-.332,2.638,3.967.519-.16,1.277L157.49,15.9,158.6,7.055l5.219.683L163.662,9l-3.708-.485-.3,2.42,3.306.433Z" transform="translate(-33.395 -2.209)" fill="#fff"/>
        <path id="Path_10786" data-name="Path 10786" d="M174.072,12.589a1.564,1.564,0,0,0-1.3-2c-.907-.2-1.482.026-1.662.856-.206.949.562,1.346,1.46,1.76,1.229.576,2.728,1.2,2.308,3.134-.367,1.7-1.83,2.474-3.772,2.035-2.058-.465-2.965-1.515-2.793-3.43l1.6.124a1.663,1.663,0,0,0,1.471,2.049c1.128.254,1.775-.147,1.95-.953.219-1.008-.706-1.354-1.727-1.821-1.2-.556-2.538-1.232-2.139-3.071.35-1.613,1.8-2.32,3.679-1.895a2.824,2.824,0,0,1,2.478,3.31Z" transform="translate(-35.686 -2.641)" fill="#fff"/>
        <path id="Path_10787" data-name="Path 10787" d="M184.02,13.488l-2.452-.792.377-1.216,6.368,2.057-.377,1.216-2.463-.8-2.262,7.283-1.453-.469Z" transform="translate(-38.499 -3.077)" fill="#fff"/>
        <path id="Path_10825" data-name="Path 10825" d="M.022.008,1.186,0,1.163,3.3,0,3.305Z" transform="translate(149.503 16.984) rotate(-68.705)" fill="#fff"/>
        <path id="Path_10788" data-name="Path 10788" d="M201.693,24.313l2.907,1.455-2,4.154-.994-.5.455-1.111a2.943,2.943,0,0,1-2.721-.023c-2-1-2.536-2.946-1.293-5.531,1.452-3.02,3.545-3.6,5.7-2.516,1.749.875,2.311,2.281,1.433,4.252l-1.385-.664c.593-1.371.173-2.07-.732-2.523-1.091-.546-2.4-.253-3.5,2.037-1.013,2.1-.726,3.3.525,3.929a1.851,1.851,0,0,0,2.676-.961l.053-.109-1.646-.823Z" transform="translate(-41.851 -4.697)" fill="#fff"/>
        <path id="Path_10789" data-name="Path 10789" d="M212.532,31.1l-.11-.071-1.163-.736-1.915,3.146-1.284-.813,4.607-7.573L215.5,26.85c1.881,1.191,1.935,2.482,1.214,3.669a2.365,2.365,0,0,1-2.829,1.2l-.352,4.379-1.375-.871Zm.339-1.2c1.122.711,1.9.773,2.462-.156.521-.856.186-1.411-.8-2.038l-1.224-.775-1.426,2.342Z" transform="translate(-44.114 -5.74)" fill="#fff"/>
        <path id="Path_10790" data-name="Path 10790" d="M220.712,35.728c1.74-2.314,3.988-2.729,5.984-1.168,1.965,1.538,1.921,3.633.247,5.859-1.8,2.392-3.86,2.937-5.921,1.325-2.041-1.6-2.035-3.722-.309-6.016m4.916,3.724c1.269-1.687,1.414-3,.251-3.908-1.191-.932-2.553-.559-3.85,1.167s-1.444,3.1-.234,4.044,2.492.48,3.833-1.3" transform="translate(-46.529 -7.421)" fill="#fff"/>
        <path id="Path_10791" data-name="Path 10791" d="M233.561,52.164l3.242-5.951-.034-.034-5.654,3.552-1.4-1.39,4.539-7.935,1.159,1.153-3.976,6.425.017.017,6.407-4.008,1.1,1.092-3.671,6.73.017.017,6.218-4.2,1.1,1.094-7.676,4.815Z" transform="translate(-48.704 -8.75)" fill="#fff"/>
        <path id="Path_10792" data-name="Path 10792" d="M242.721,61.086l.612.745-.793.678-2.2-2.681.793-.679.612.745,5.111-4.369-.6-.736.793-.678,2.2,2.682-.794.678-.619-.755Z" transform="translate(-50.956 -11.438)" fill="#fff"/>
        <path id="Path_10793" data-name="Path 10793" d="M248.855,71.046l3.232-6.946-.028-.039-5.367,3.845-.821-1.192,7.149-5.123,1.039,1.51-3.347,6.969.021.03,5.454-3.908.821,1.192-7.149,5.123Z" transform="translate(-52.129 -12.905)" fill="#fff"/>
        <path id="Path_10794" data-name="Path 10794" d="M259.185,79.253l1.576,2.887L256.8,84.392l-.54-.987,1-.65a2.988,2.988,0,0,1-2.223-1.6c-1.085-1.985-.438-3.9,2.027-5.3,2.881-1.638,4.924-.894,6.094,1.249a2.893,2.893,0,0,1-1.121,4.264l-.808-1.311c1.218-.774,1.258-1.585.771-2.475-.592-1.083-1.829-1.6-4.013-.361-2.007,1.141-2.442,2.292-1.764,3.533a1.849,1.849,0,0,0,2.737.767l.1-.059-.893-1.634Z" transform="translate(-53.963 -15.529)" fill="#fff"/>
        <path id="Path_10795" data-name="Path 10795" d="M46.36,239.931l-1.08-1.08,6.117-6.365,2.355,2.355c1.615,1.616,1.325,2.906.317,3.956-.792.823-2.373,1.879-4.506-.255l-.953-.952Zm3.891-2.384c.977.977,1.82,1.055,2.628.214.717-.746.643-1.4-.258-2.3l-1-1-2.183,2.272Z" transform="translate(-9.612 -46.421)" fill="#fff"/>
        <path id="Path_10796" data-name="Path 10796" d="M60.014,247.189l-.1-.084-1.069-.873-2.27,2.892-1.18-.964,5.463-6.96,2.6,2.126c1.729,1.412,1.631,2.7.775,3.793a2.358,2.358,0,0,1-2.95.842l-.864,4.306-1.263-1.033Zm.476-1.151c1.032.842,1.794,1,2.464.146.618-.788.35-1.379-.561-2.124l-1.125-.919-1.689,2.153Z" transform="translate(-11.755 -48.13)" fill="#fff"/>
        <path id="Path_10797" data-name="Path 10797" d="M68.8,256.766l.793.539-.575.879-2.853-1.939.575-.879.793.539,3.7-5.66-.783-.532.574-.879,2.854,1.939-.575.88-.8-.546Z" transform="translate(-14.039 -49.627)" fill="#fff"/>
        <path id="Path_10798" data-name="Path 10798" d="M84.656,256.6l1.392.773-6.925,6.31-1.675-.931,1.4-9.38,1.464.814-1.362,7.782.032.017Z" transform="translate(-16.43 -50.518)" fill="#fff"/>
        <path id="Path_10799" data-name="Path 10799" d="M94.05,261.6l-.379,9.519-1.449-.624.088-2.4-3.349-1.441-1.6,1.751-1.405-.6,6.34-6.954Zm-1.408.871-.054-.023-2.85,3.206,2.711,1.166Z" transform="translate(-18.233 -51.983)" fill="#fff"/>
        <path id="Path_10800" data-name="Path 10800" d="M103.916,266.054l-2.452-.792.377-1.215,6.368,2.057-.377,1.215-2.463-.8-2.262,7.284-1.453-.469Z" transform="translate(-21.52 -52.611)" fill="#fff"/>
        <path id="Path_10801" data-name="Path 10801" d="M117.629,273.617l-3.259-.715-.548,2.6,3.911.857-.265,1.26-5.4-1.184,1.835-8.716,5.146,1.127-.263,1.248-3.655-.8-.5,2.387,3.259.715Z" transform="translate(-23.768 -53.331)" fill="#fff"/>
        <path id="Path_10802" data-name="Path 10802" d="M136.908,276.916l1.467.2a3.087,3.087,0,0,1-3.587,2.872c-2.389-.153-3.581-1.7-3.4-4.719.2-3.211,1.881-4.6,4.257-4.448a2.91,2.91,0,0,1,2.97,3.487l-1.515.012c.095-1.734-.676-2.185-1.58-2.243-1.294-.082-2.356.7-2.514,3.258-.14,2.279.514,3.281,1.916,3.371,1.128.072,1.822-.528,1.983-1.8" transform="translate(-27.86 -53.938)" fill="#fff"/>
        <path id="Path_10803" data-name="Path 10803" d="M145.353,275.71c-.126-2.912,1.333-4.7,3.841-4.818,2.474-.113,3.761,1.518,3.883,4.322.132,3.008-1.1,4.778-3.7,4.9-2.568.117-3.9-1.512-4.028-4.4m6.109-.375c-.092-2.123-.807-3.221-2.271-3.154-1.5.068-2.305,1.247-2.21,3.418s.848,3.317,2.37,3.248,2.21-1.267,2.111-3.511" transform="translate(-30.821 -53.952)" fill="#fff"/>
        <path id="Path_10804" data-name="Path 10804" d="M165.06,278.185l-3.381-6.633-.035.006,1.163,7.015-1.42.245-1.457-8.787,2.324-.4,3.337,6.875.024,0,.947-7.614,2.229-.384,1.457,8.788-1.421.244-1.16-7-.035.006-1,7.376Z" transform="translate(-33.913 -53.485)" fill="#fff"/>
        <path id="Path_10805" data-name="Path 10805" d="M180.447,274.977l-1.451.435-2.463-8.554,3.165-.948c2.169-.65,3.132.238,3.539,1.649.318,1.107.45,3.03-2.418,3.888l-1.279.383Zm-.142-4.629c1.314-.393,1.791-1.106,1.466-2.236-.288-1-.883-1.255-2.093-.892l-1.348.4.879,3.053Z" transform="translate(-37.432 -52.934)" fill="#fff"/>
        <path id="Path_10806" data-name="Path 10806" d="M191.939,261.778l6.286,7.033-1.458.595-1.593-1.769-3.37,1.377.068,2.392-1.415.578-.286-9.483Zm-.4,1.628-.055.022.183,4.321,2.729-1.114Z" transform="translate(-40.322 -52.166)" fill="#fff"/>
        <path id="Path_10807" data-name="Path 10807" d="M208.891,262.888l-6.376-4.109-.043.022,3.1,5.9-1.259.688-4.131-7.859,1.6-.872,6.384,4.228.032-.018-3.151-6,1.26-.688,4.13,7.859Z" transform="translate(-42.445 -50.677)" fill="#fff"/>
        <path id="Path_10808" data-name="Path 10808" d="M218.606,256.164l.794-.536.572.882-2.86,1.932-.573-.882.8-.537-3.683-5.673-.785.53-.572-.882,2.861-1.932.572.882-.8.543Z" transform="translate(-45.012 -49.673)" fill="#fff"/>
        <path id="Path_10809" data-name="Path 10809" d="M226.935,246.128l-2.619,2.105,1.615,2.09,3.143-2.527.781,1.011-4.341,3.489-5.41-7,4.135-3.324.775,1-2.938,2.361,1.482,1.918,2.619-2.105Z" transform="translate(-46.667 -48.281)" fill="#fff"/>
        <path id="Path_10810" data-name="Path 10810" d="M234.56,236.648a1.515,1.515,0,0,0-2.348-.013c-.672.655-.8,1.27-.229,1.885.658.7,1.409.273,2.246-.256,1.154-.721,2.5-1.643,3.837-.211,1.176,1.256,1,2.927-.442,4.328-1.524,1.486-2.883,1.668-4.348.457l.989-1.282a1.612,1.612,0,0,0,2.486-.105c.835-.813.87-1.586.311-2.183-.7-.747-1.5-.156-2.445.449-1.119.7-2.415,1.465-3.69.1-1.118-1.194-.889-2.813.506-4.171a2.74,2.74,0,0,1,4.073-.257Z" transform="translate(-48.811 -46.836)" fill="#fff"/>
        <path id="Path_10811" data-name="Path 10811" d="M121.265,28.341l-.181,0h-.042q-.481-.006-.961-.007l-.14,56.271q.24,0,.482,0Zm-11.016.5-.016,0-.043,0-.032,0-.041,0-.032,0-.041,0-.033,0-.038,0-.034,0-.041,0-.032,0-.04,0-.033,0-.038,0-.036,0-.033,0-.041,0-.026,0-.051.006h-.009l-.486.057,6.461,55.884q.232-.028.465-.052ZM99.374,30.689l-.066.015-.034.008-.025.006-.27.064h0l-.059.014-.025.006-.035.008c-.212.051-.424.1-.635.156l13.053,54.673.45-.109ZM88.8,33.871q-.557.2-1.109.418l19.473,52.649c.143-.055.288-.11.433-.164ZM78.68,38.339l-.5.261,0,0-.053.028-.012.006-.05.027-.012.006L78,38.7l-.013.007-.049.026-.013.006-.048.026-.018.01-.043.023-.024.013-.036.018-.053.029-.007,0-.065.035,25.587,49.852c.137-.073.276-.146.414-.217Zm-9.514,5.685-.236.162-.021.014-.027.019c-.218.15-.438.3-.655.455l-.03.021-.009.006,31.295,46.34c.128-.091.258-.18.388-.269Zm-8.774,6.812-.165.146-.007.006-.028.026c-.231.2-.462.409-.69.615L96.024,93.8q.176-.159.355-.316Zm-7.91,7.836c-.127.141-.256.287-.382.43l0,0-.037.042-.012.013-.03.035L52,59.218l-.028.032-.019.021-.028.032-.017.02-.032.037-.012.013-.036.043,0,0-.129.147,41.219,37.4q.156-.18.315-.357Zm-6.93,8.749c-.173.247-.348.5-.519.75l-.162.236L90.2,100.481c.089-.131.179-.262.27-.391ZM39.7,76.957q-.283.529-.558,1.063l48.79,26.255c.072-.139.146-.279.22-.417ZM35.032,87.144l-.078.2-.008.018-.014.039-.02.051v0c-.1.27-.206.539-.307.81L86.157,108.29c.055-.147.11-.293.167-.44ZM31.607,97.835c-.053.207-.106.415-.157.622-.046.184-.089.363-.134.547l53.557,13.479q.056-.229.114-.457ZM29.48,108.872c-.009.06-.017.122-.024.182,0,.008,0,.017,0,.025l0,.026q-.061.48-.119.962l54.762,6.77c.019-.158.039-.316.059-.474Zm54.347,12-55.157-.78q-.008.6-.009,1.207l55.163.064c0-.163,0-.327,0-.491m.2,4.51-54.854,5.946q.039.373.08.744l0,.013c0,.015,0,.031.006.047l0,.046,0,.01.039.339,54.774-6.671q-.028-.236-.053-.474m.717,4.359L31,142.418c0,.011,0,.023.008.035.082.359.165.719.251,1.077v0c0,.018.009.039.013.057l53.577-13.4c-.036-.152-.073-.305-.107-.458m1.225,4.211L34.136,153.2q.188.527.383,1.051c0,.014.009.026.014.04l0,.009c0,.011.006.019.011.03l51.583-19.941c-.054-.146-.108-.294-.161-.442m1.723,4.044L38.532,163.517l0,0q.2.4.4.789l.013.025a.263.263,0,0,0,.013.026c.038.076.078.153.117.227l48.833-26.173c-.072-.14-.143-.281-.214-.422m2.208,3.832L44.118,173.214c.054.082.108.164.162.245l.009.014.024.035c.156.235.314.469.471.7l45.382-31.99q-.134-.2-.264-.4m2.662,3.557L50.809,182.154l.162.192.015.018.027.031.027.031.016.019.032.039.017.019.024.029.024.028.013.015c.139.162.28.326.419.486l41.288-37.318q-.157-.18-.311-.362m4.149,1.974L58.5,190.211l.255.237c.13.119.26.239.391.357l.232.212,37.683-43.339c-.117-.106-.234-.214-.351-.322m3.3,2.687-32.92,47.225.169.121.017.012.019.014.19.136.025.018.013.01q.267.192.536.381l32.336-47.642q-.194-.136-.384-.275m2.736,3.711-26.3,49.465q.519.287,1.043.568l25.667-49.809c-.137-.073-.274-.148-.41-.223m3.917,1.863L86.438,207.971q.336.135.673.268l.025.01.018.007.386.15,19.552-52.619q-.216-.083-.431-.17m4.095,1.359L96.923,211.45l.211.055.008,0,.045.011.043.011.01,0c.274.072.555.143.83.212L111.2,157.091c-.15-.037-.3-.076-.448-.115m4.255.846L107.745,213.6q.585.078,1.173.151l6.559-55.873c-.156-.019-.31-.039-.466-.06m4.9.326-.481,0-.686,56.267c.393,0,.791.008,1.183.007Zm4.4-.269c-.155.019-.31.037-.465.054l5.908,55.948c.393-.043.784-.089,1.176-.137Zm4.255-.794q-.225.057-.45.11L140.628,212l.61-.147.02,0,.035-.009.044-.011.02,0,.054-.013.017,0,.05-.013.029-.007.031-.007.241-.06Zm4.11-1.31q-.216.084-.433.165L151.2,208.79l.346-.13h0l.061-.023.011,0,.055-.021.014-.006c.206-.079.413-.158.619-.238Zm2.547-4.742c-.137.074-.274.147-.413.219L161.3,204.291l.015-.008.046-.024,0,0,.584-.308.027-.014.028-.015.344-.184Zm3.477-1.886c-.129.091-.258.181-.388.27L170.8,198.578l.336-.232.006,0,.039-.027.047-.033h0l.475-.334.072-.051Zm5.1-.268c-.117.107-.236.212-.354.318l36.107,42.542.108-.1.015-.014.035-.031.026-.023.025-.022.035-.031.012-.011.043-.039.006-.006.33-.3.028-.025.016-.014.042-.038,0,0,.163-.148Zm3.106-3.176c-.1.121-.209.24-.314.359l40.849,37.817c.264-.3.528-.6.788-.9Zm2.7-3.521c-.089.131-.178.261-.269.391l45.007,32.536c.137-.2.274-.4.411-.595l0-.006.028-.043.014-.02.028-.043.009-.012.183-.269Zm2.249-3.8c-.072.141-.145.28-.218.419l48.528,26.757q.281-.531.556-1.064Zm1.768-4.019c-.054.146-.11.293-.166.439l51.351,20.554c.043-.11.084-.216.125-.326v0l.017-.045.014-.038.007-.018c.076-.2.152-.4.228-.608l.032-.088Zm1.272-4.2c-.036.154-.074.305-.112.458l53.42,14.033q.148-.584.288-1.17Zm.769-4.359c-.018.158-.038.317-.058.475l54.692,7.331c.008-.06.015-.119.023-.18q.064-.506.124-1.017Zm55.419-4.622-55.163.095c0,.164,0,.327,0,.491l55.16.621c0-.338.006-.68.006-1.018v-.189m-.678-11.226-54.755,6.832c.019.158.037.316.054.474l54.837-6.108-.028-.259C210.481,110.588,210.445,110.273,210.407,109.961Zm-2-11.061-53.539,13.553q.056.229.109.458l53.707-12.839c-.027-.117-.054-.237-.082-.354l0-.012,0-.006c-.063-.268-.126-.535-.192-.8m-3.3-10.731-51.526,20.094q.083.219.162.441L205.52,89.3c-.05-.138-.1-.276-.15-.413l-.009-.024-.007-.021C205.271,88.615,205.189,88.393,205.1,88.169Zm-4.556-10.242L151.79,104.244c.072.14.144.28.215.421L201.095,79q-.2-.4-.4-.789l-.027-.051v0C200.627,78.079,200.588,78,200.549,77.927Zm-5.736-9.606-45.292,32.122c.089.131.178.263.266.395l45.695-31.522-.039-.06c-.088-.133-.178-.268-.267-.4l-.009-.014-.024-.038c-.01-.014-.02-.028-.029-.043l-.006-.009q-.145-.217-.292-.432m-6.828-8.832L146.8,96.928l.311.361,41.652-36.894-.078-.091-.014-.016-.016-.019-.037-.043,0,0-.047-.055h0l-.048-.055v0l-.043-.05-.012-.014-.028-.033-.026-.03-.012-.014-.417-.481m-7.817-7.932L143.684,93.763c.118.106.235.213.351.32l37.014-41.723-.235-.216,0,0-.04-.037q-.293-.268-.588-.534l-.017-.014m-8.694-6.918L140.229,91.013c.128.09.257.182.384.273l31.831-45.959c-.32-.23-.647-.462-.97-.689m-9.447-5.8L136.5,88.725q.206.11.411.222l26.16-49.541-.009-.006-.509-.277-.009-.006-.05-.027-.024-.013-.035-.018-.033-.018-.028-.014-.037-.02-.024-.013-.037-.02-.036-.019-.022-.012-.191-.1M151.96,34.251l-19.4,52.677q.216.082.431.168l20.075-52.413-.31-.122-.033-.014h0q-.24-.1-.481-.188h0l-.042-.016Zm-10.539-3.307-12.98,54.692.449.113,13.679-54.513c-.383-.1-.764-.2-1.148-.292m-10.854-1.978-6.4,55.891c.156.018.311.039.466.059l7.11-55.8-.286-.038h-.009l-.032,0c-.227-.03-.451-.057-.678-.085l-.015,0-.02,0-.135-.016" transform="translate(-6.089 -6.382)"/>
        <path id="Path_10812" data-name="Path 10812" d="M248.1,200.634l-1.134-.921a107.518,107.518,0,0,0,14.56-106.446l1.339-.57A109.03,109.03,0,0,1,248.1,200.634" transform="translate(-52.361 -19.005)" fill="#fff"/>
        <path id="Path_10813" data-name="Path 10813" d="M33.472,200.634A109.024,109.024,0,0,1,18.707,92.7l1.339.57a107.517,107.517,0,0,0,14.56,106.446Z" transform="translate(-2.268 -19.005)" fill="#fff"/>
        <path id="Path_10814" data-name="Path 10814" d="M248.089,200.621l-1.1-.89A107.55,107.55,0,0,0,261.558,93.259l1.292-.551a109,109,0,0,1-14.761,107.913" transform="translate(-52.366 -19.007)" fill="#fff"/>
        <path id="Path_10815" data-name="Path 10815" d="M33.5,200.621A109,109,0,0,1,18.737,92.708l1.292.551A107.55,107.55,0,0,0,34.594,199.731Z" transform="translate(-2.275 -19.007)" fill="#fff"/>
        <path id="Path_10816" data-name="Path 10816" d="M179.99,126.508a6.37,6.37,0,0,1-5.376-3.891l-.329-.769-.588.586c-3.166,3.152-7.961,4.75-14.252,4.75s-12.063-2-15.818-5.483l-.949-.881v5.575H64.551v-11.8h5.27V94.859h-5.27V82.369H95.427V92.05h18.222l.983,4.085.909-.7a15.66,15.66,0,0,1,10.059-3.08c7.951,0,12.718,3.568,13.421,10.048l.223,2.058.856-1.878c3.463-7.6,12.25-10.323,19.318-10.33.244-.016.689-.016.7-.016,7.757,0,16.433,3.776,17.52,14.374l.143,1.4-14.706,1.65-.064-1.509c-.195-4.63-1.465-5.56-3.452-5.56-3.112,0-4.11,1.721-4.11,7.084,0,5.431,1,7.174,4.11,7.174,2.288,0,3.653-1.3,3.653-3.463V111.96l1.785.016,12.94.006-.195,2.1.819-.268a6.079,6.079,0,0,1,1.887-.3,6.526,6.526,0,0,1,.63,13.005Zm.42,13.545c-2.575,0-3.8,1.918-3.8,12.817s1.226,12.816,3.8,12.816,3.8-1.918,3.8-12.816-1.226-12.817-3.8-12.817m-38.632,0c-2.577,0-3.8,1.918-3.8,12.817s1.225,12.816,3.8,12.816,3.8-1.918,3.8-12.816-1.225-12.817-3.8-12.817m-38.633,0c-2.577,0-3.8,1.918-3.8,12.817s1.226,12.816,3.8,12.816,3.8-1.918,3.8-12.816-1.225-12.817-3.8-12.817M61.729,156.183l1.35,1.06-.388.984c-.642,1.281-.97,4.132,0,5.755a2.511,2.511,0,0,0,2.383,1.2,3.658,3.658,0,0,0,3.987-3.236,10.507,10.507,0,0,0,.222-2.257,6.872,6.872,0,0,0-1.615-4.99,4.046,4.046,0,0,0-2.909-1.126,9.573,9.573,0,0,0-5.843,2.363l-.518.252-10.624-4.319,3.243-23.83H81.374v13.722H62.068l-.381,2.9.92-.405a14.6,14.6,0,0,1,5.925-1.19c4.931,0,8.839,1.342,11.617,3.987a12.7,12.7,0,0,1,2.1,2.639l.928,1.537.121-1.8c.946-14.04,7.98-21.773,19.808-21.773,9.672,0,16.166,5.159,18.778,14.92l.559,2.089.537-2.095c2.5-9.757,8.99-14.914,18.759-14.914,9.672,0,16.166,5.159,18.778,14.92l.559,2.089.537-2.095c2.463-9.6,8.806-14.755,18.342-14.9l1.159,0c12.248.35,19.272,9.523,19.272,25.167,0,16.049-7.295,25.255-20.015,25.255-9.671,0-16.149-5.208-18.733-15.061l-.547-2.084-.549,2.084c-2.6,9.853-9.1,15.061-18.8,15.061-9.671,0-16.149-5.208-18.734-15.062l-.548-2.085-.548,2.085c-2.6,9.853-9.1,15.062-18.8,15.062-8.853,0-15.309-4.693-18.181-13.215l-.56-1.66-.518,1.674a19.286,19.286,0,0,1-1.582,3.706,16.9,16.9,0,0,1-3.673,4.56,20.476,20.476,0,0,1-13.8,4.935c-7.835,0-16.743-4.233-17.789-13.527l-.109-.969Zm57.637-52.273a4.153,4.153,0,0,0-4.281,4.307v6.372h7.428V106.6c0-1.785-1.059-2.69-3.147-2.69M90.158,114.584l8.33,0V103.87H94.521V94.859H90.158Z" transform="translate(-9.953 -16.98)" fill="#fff"/>
        <path id="Path_10817" data-name="Path 10817" d="M113.406,140.4c-11.731,0-18.556,7.992-18.556,23.771,0,15.639,6.825,23.841,18.556,23.841,11.586,0,18.629-8.2,18.629-23.841,0-15.779-7.043-23.771-18.629-23.771m.036,38.035c-4.276,0-5.188-4.2-5.188-14.23s.912-14.229,5.188-14.229,5.188,4.2,5.188,14.229-.912,14.23-5.188,14.23" transform="translate(-20.118 -28.361)" fill="#f7a120"/>
        <path id="Path_10818" data-name="Path 10818" d="M162.431,140.4c-11.73,0-18.556,7.992-18.556,23.771,0,15.639,6.826,23.841,18.556,23.841,11.586,0,18.629-8.2,18.629-23.841,0-15.779-7.043-23.771-18.629-23.771m.036,38.035c-4.276,0-5.188-4.2-5.188-14.23s.912-14.229,5.188-14.229,5.188,4.2,5.188,14.229-.912,14.23-5.188,14.23" transform="translate(-30.51 -28.361)" fill="#285cff"/>
        <path id="Path_10819" data-name="Path 10819" d="M211.455,140.4c-11.731,0-18.556,7.992-18.556,23.771,0,15.639,6.825,23.841,18.556,23.841,11.586,0,18.628-8.2,18.628-23.841,0-15.779-7.043-23.771-18.628-23.771m.036,38.035c-4.276,0-5.188-4.2-5.188-14.23s.912-14.229,5.188-14.229,5.188,4.2,5.188,14.229-.912,14.23-5.188,14.23" transform="translate(-40.901 -28.361)" fill="#002891"/>
        <path id="Path_10820" data-name="Path 10820" d="M79.773,159.511c-2.35-2.24-5.815-3.607-10.672-3.607a12.345,12.345,0,0,0-8.642,3.221l.967-7.353H80.558v-10.9H52.8L49.854,162.5l8.109,4.293c1.4-1.17,4.027-3.209,7.368-3.209a5.393,5.393,0,0,1,3.872,1.523c1.244,1.224,2.039,3.2,2.039,6.007a11.786,11.786,0,0,1-.258,2.572,5.027,5.027,0,0,1-5.336,4.336c-5.238,0-4.8-6.657-3.619-9.01l-.07-.072-13.013,6.89c.95,8.438,9.308,12.275,16.413,12.275a19.25,19.25,0,0,0,12.91-4.6,15.529,15.529,0,0,0,3.365-4.182,17.6,17.6,0,0,0,2.243-8.441c0-4.51-1.2-8.606-4.1-11.372" transform="translate(-10.389 -28.454)" fill="#fe2b09"/>
        <path id="Path_10821" data-name="Path 10821" d="M71.229,125.271v-8.978H76.5V93.735h-5.27V84.072H99.334v9.663h-5.27v22.552h5.27v8.984Z" transform="translate(-15.112 -17.314)"/>
        <path id="Path_10822" data-name="Path 10822" d="M133.172,127.633v-8.98h4.08v-9.4c0-2.832-1.983-4.1-4.534-4.1a5.55,5.55,0,0,0-5.666,5.72v7.785h4.193v8.98H109.26v-8.98h3.966V105.109H109.26V96.115H126.6v6.2a5.828,5.828,0,0,0,.794-.867c3.173-3.7,6.8-5.029,11.559-5.029,6.687,0,12.126,2.774,12.126,10.346v11.884h3.569v8.984Z" transform="translate(-23.173 -19.676)"/>
        <path id="Path_10823" data-name="Path 10823" d="M201.475,109.455l-11.866,1.332c-.141-3.358-.82-6.912-4.835-6.912-5.1,0-5.5,4.335-5.5,8.5v.091c0,4.161.4,8.5,5.5,8.5,2.677,0,5.039-1.565,5.039-4.877l.386,0,11.431.006-.1,1.04c-1.95,9.8-10.622,11.336-16.871,11.336-9.8,0-19.436-4.913-19.436-16.069v.031c0-11.155,9.634-16.067,19.436-16.067,0,0,15.367-1.016,16.814,13.092" transform="translate(-35.035 -19.721)"/>
        <path id="Path_10824" data-name="Path 10824" d="M220.2,127.914a5.006,5.006,0,1,1-5.006-5.108,5.055,5.055,0,0,1,5.006,5.108" transform="translate(-44.565 -24.91)"/>
      </g>
    </g>
  </g>
</svg>
