<svg xmlns="http://www.w3.org/2000/svg" xmlns:xlink="http://www.w3.org/1999/xlink" width="64.603" height="62.547" viewBox="0 0 64.603 62.547">
  <defs>
    <clipPath id="clip-path">
      <path id="Path_9960" data-name="Path 9960" d="M192,185h30.435v31.165H192Zm0,0" transform="translate(-192 -185)" stroke="#707070" stroke-width="1"/>
    </clipPath>
    <clipPath id="clip-path-2">
      <path id="Path_9963" data-name="Path 9963" d="M113.063,196h26.809v26.4H113.063Zm0,0" transform="translate(-113.063 -196)" stroke="#707070" stroke-width="2"/>
    </clipPath>
    <clipPath id="clip-path-3">
      <path id="Path_9965" data-name="Path 9965" d="M198,112.5h26.837v26.62H198Zm0,0" transform="translate(-198 -112.5)" stroke="#707070" stroke-width="0.5"/>
    </clipPath>
  </defs>
  <g id="Managed_Services" data-name="Managed Services" transform="translate(-113.063 -112.5)">
    <path id="Path_9958" data-name="Path 9958" d="M124.722,131.556c-.92-1.627-.737-3.421-.79-5.181-.041-1.3,1.1-1.518,1.84-2.073,3.826-2.782,3.5-7.667,1.038-11.143-.354-.517-.81-1.035-1.559-.771-.867.306-.825,1.067-.783,1.8v.517c-.077,5.45-1.325,6.486-6.756,5.45a2.278,2.278,0,0,1-2.078-2.589c.052-1.207,0-2.419,0-3.627a1.575,1.575,0,0,0-.265-.945,1.6,1.6,0,0,0-.773-.609c-.707-.306-.925.336-1.309.751-2.524,2.761-2.9,8.936,1.309,11.163a3.05,3.05,0,0,1,1.595,3.353c-.193,1.522.145,2.952-.286,4.4" transform="translate(42.765 40.707)" fill="none" stroke="#000" stroke-linecap="round" stroke-linejoin="round" stroke-width="2"/>
    <g id="Group_2201" data-name="Group 2201" transform="translate(147.231 143.882)" clip-path="url(#clip-path)">
      <path id="Path_9959" data-name="Path 9959" d="M112.953,94.541c2.078.773,4.253,1.109,6.273,2.259,4.954,2.824,6.985,7.108,6.939,12.505a13.1,13.1,0,0,1-7.27,12.069c-8.366,4.237-16.837.161-19.931-7.412-3.517-8.615,2.813-18.5,12.192-19.166a10.32,10.32,0,0,0,1.3-.255" transform="translate(-96.851 -93.097)" fill="none" stroke="#000" stroke-linecap="round" stroke-linejoin="round" stroke-width="2"/>
    </g>
    <path id="Path_9961" data-name="Path 9961" d="M58.67,41.073c-1.99,2.726-1.818,2.974,1.557,4.7,1.61.844,1.111,2.548.779,3.973-.95.482-2.311-.482-2.981,1.378-.489,1.368-.852,2.159.369,3.175.835.693.1,1.446-.271,2.036a2.148,2.148,0,0,1-1.633,1.067,2.13,2.13,0,0,1-.671-.03c-.38-.073-.661-.612-1.04-.725-1.926-.555-3.375.714-3.9,3.331-3.6.673-3.863.517-3.9-2.59-1.672-.861-3.36-1.835-4.793.947L39.5,55.059c1.782-1.119,1.74-2.7.6-4.4-3.255-.44-3.38-.622-2.715-4.144,2.3.088,3.324-1.228,3.505-3.5l-1.173-1.632,2.431-2.741c1.236.928,2.45,2.244,4.1.627.4-.389.862-.565.795-1.315-.145-1.606.84-2.073,2.306-2.073,1.365-.03,1.66.519,1.885,1.829.374,2.124,2.633,2.507,5.228.984a4.469,4.469,0,0,1,2.234,2.134" transform="translate(84.929 84.051)" fill="none" stroke="#000" stroke-linecap="round" stroke-linejoin="round" stroke-width="2"/>
    <g id="Group_2202" data-name="Group 2202" transform="translate(113.063 148.643)" clip-path="url(#clip-path-2)">
      <path id="Path_9962" data-name="Path 9962" d="M38.093,107.586c-1.434.705-2.68,2.264-4.477.316-.768-.828,0-1.76-.715-2.387a5.609,5.609,0,0,0-3.635,0c-.7,3.481-2.13,4.051-5.049,2.166l-2.633,2.626c2.146,2.621,1.459,4.325-2.186,5.05a5.55,5.55,0,0,0,0,3.625c3.593.7,4.154,2.026,2.171,5.036l3.033,3.027.913-1.912c2.748.357,3.781,1.554,3.672,3.667a5.651,5.651,0,0,0,3.713.025c.519-2.533.519-2.533,2.891-3.626,1.123-.032,1.3,1.388,2.078,1.554l2.7-2.688c-1.993-2.538-1.682-3.823,1.407-4.766a1.856,1.856,0,0,0,.587-.309,1.9,1.9,0,0,0,.7-1.1,1.851,1.851,0,0,0,.029-.661c-.046-.685-.1-1.762-1.309-2.118-3.059-.9-3.375-2.254-1.287-4.912a5.562,5.562,0,0,0-2.359-2.589" transform="translate(-17.943 -103.911)" fill="none" stroke="#000" stroke-linecap="round" stroke-linejoin="round" stroke-width="2"/>
    </g>
    <g id="Group_2203" data-name="Group 2203" transform="translate(149.828 112.5)" clip-path="url(#clip-path-3)">
      <path id="Path_9964" data-name="Path 9964" d="M108.225,28.749l-.779,2.362c-.436.492-1.038.115-1.557.228-.431.088-.867.161-1.294.238a5.721,5.721,0,0,0,.036,3.776h2.489c1.069,1.975,1.806,3.792-.286,4.917L109.253,43c3.074-1.983,3.433-1.9,5.192,1.554a2.46,2.46,0,0,0,2.078,1.192,2,2,0,0,0,1.827-1.2c1.557-3.392,2.156-3.579,5.3-1.486,1.131-.435,1.708-1.554,2.5-2.144.037-1.41-1.387-1.586-1.557-2.59.576-1.767,1.038-3.672,3.583-2.786a6.3,6.3,0,0,0,.052-3.948c-2.447-.331-2.447-.331-3.635-2.885-.032-1.119,1.391-1.3,1.557-2.321l-2.332-2.3c-3.661,1.865-5.006,1.321-5.711-2.321a5.609,5.609,0,0,0-3.635,0c-.519,2.673-.519,2.673-2.857,3.627l-2.17-1.627c-1.143.44-1.72,1.554-2.416,2.071-.374,1.508,1.04,1.742,1.211,2.663" transform="translate(-103.029 -20.269)" fill="none" stroke="#000" stroke-linecap="round" stroke-linejoin="round" stroke-width="2"/>
    </g>
    <path id="Path_9966" data-name="Path 9966" d="M84.673,132.837H75.585" transform="translate(63.08 29.065)" fill="none" stroke="#000" stroke-linecap="round" stroke-linejoin="round" stroke-width="2"/>
    <path id="Path_9967" data-name="Path 9967" d="M85.784,84.97l8.828,8.547" transform="translate(57.295 56.212)" fill="none" stroke="#000" stroke-linecap="round" stroke-linejoin="round" stroke-width="2"/>
    <path id="Path_9968" data-name="Path 9968" d="M132.2,78.388c-.519,2.227-.14,4.491-.26,6.733" transform="translate(31.129 59.945)" fill="none" stroke="#000" stroke-linecap="round" stroke-linejoin="round" stroke-width="2"/>
    <path id="Path_9969" data-name="Path 9969" d="M37.8,119.673C34.169,121,32.73,123.3,33.39,126.667a6.294,6.294,0,0,0,5.453,4.4,5.727,5.727,0,0,0,3.219-.815,5.686,5.686,0,0,0,2.753-4.624c.078-3.625-2.076-5.884-5.712-5.957h-1.04" transform="translate(87.099 36.531)" fill="none" stroke="#000" stroke-linecap="round" stroke-linejoin="round" stroke-width="2"/>
    <path id="Path_9970" data-name="Path 9970" d="M123.652,35.869c-5.23,1.912-6.6,6.767-2.857,10.1a6.276,6.276,0,0,0,6.492.776,5.612,5.612,0,0,0,2.856-6.215c-.551-2.7-2.161-4.325-4.673-4.663a12.626,12.626,0,0,0-1.559,0" transform="translate(38.642 84.074)" fill="none" stroke="#000" stroke-linecap="round" stroke-linejoin="round" stroke-width="2"/>
    <path id="Path_9971" data-name="Path 9971" d="M56.863,50.264a19.739,19.739,0,0,0-2.6,1.036c-1.968,1.129-3.443,4.418-2.866,6.215.83,2.59,4,5.025,6.232,4.662a5.975,5.975,0,0,0,5.426-5.7c.318-2.616-1.557-4.88-4.383-5.7-.519-.15-1.038-.342-1.557-.517" transform="translate(76.868 75.896)" fill="none" stroke="#000" stroke-linecap="round" stroke-linejoin="round" stroke-width="2"/>
  </g>
</svg>
