<svg xmlns="http://www.w3.org/2000/svg" width="84.186" height="60.016" viewBox="0 0 84.186 60.016">
  <g id="Group_2005" data-name="Group 2005" transform="translate(-109.83 -3460.347)">
    <g id="protection" transform="translate(109.83 3460.347)">
      <path id="Path_8863" data-name="Path 8863" d="M153.166,98.5h-3.289A2.881,2.881,0,0,0,147,101.377v3.289a2.881,2.881,0,0,0,2.877,2.877h3.289a2.881,2.881,0,0,0,2.877-2.877v-3.289A2.881,2.881,0,0,0,153.166,98.5Zm.411,6.166a.411.411,0,0,1-.411.411h-3.289a.411.411,0,0,1-.411-.411v-3.289a.411.411,0,0,1,.411-.411h3.289a.411.411,0,0,1,.411.411Z" transform="translate(-122.829 -94.389)" fill="#79ccff"/>
      <path id="Path_8864" data-name="Path 8864" d="M153.166,228.5h-3.289A2.881,2.881,0,0,0,147,231.377v3.289a2.881,2.881,0,0,0,2.877,2.877h3.289a2.881,2.881,0,0,0,2.877-2.877v-3.289A2.881,2.881,0,0,0,153.166,228.5Zm.411,6.166a.411.411,0,0,1-.411.411h-3.289a.411.411,0,0,1-.411-.411v-3.289a.411.411,0,0,1,.411-.411h3.289a.411.411,0,0,1,.411.411Z" transform="translate(-122.829 -203.014)" fill="#79ccff"/>
      <path id="Path_8865" data-name="Path 8865" d="M153.166,358.5h-3.289A2.881,2.881,0,0,0,147,361.377v3.289a2.881,2.881,0,0,0,2.877,2.877h3.289a2.881,2.881,0,0,0,2.877-2.877v-3.289A2.881,2.881,0,0,0,153.166,358.5Zm.411,6.166a.411.411,0,0,1-.411.411h-3.289a.411.411,0,0,1-.411-.411v-3.289a.411.411,0,0,1,.411-.411h3.289a.411.411,0,0,1,.411.411Z" transform="translate(-122.829 -311.639)" fill="#79ccff"/>
      <path id="Path_8866" data-name="Path 8866" d="M83.231,85.863,61.855,80.93a1.268,1.268,0,0,0-.556,0l-6.217,1.435V76.377A2.881,2.881,0,0,0,52.205,73.5H2.877A2.881,2.881,0,0,0,0,76.377v11.51a2.881,2.881,0,0,0,2.877,2.877H4.111v4.111H2.877A2.881,2.881,0,0,0,0,97.753v11.51a2.881,2.881,0,0,0,2.877,2.877H4.111v4.111H2.877A2.881,2.881,0,0,0,0,119.128v11.51a2.881,2.881,0,0,0,2.877,2.877H52.205a2.881,2.881,0,0,0,2.877-2.877V130.4a34.708,34.708,0,0,0,6.053,3.034,1.231,1.231,0,0,0,.885,0A34.579,34.579,0,0,0,84.186,101.16V87.065A1.235,1.235,0,0,0,83.231,85.863ZM2.466,87.887V83.366h16.36a1.233,1.233,0,1,0,0-2.466H2.466V76.377a.411.411,0,0,1,.411-.411H52.205a.411.411,0,0,1,.411.411v6.557L39.924,85.863a1.235,1.235,0,0,0-.955,1.2V88.3H2.877A.411.411,0,0,1,2.466,87.887Zm4.111,2.877H38.969v4.111H6.577Zm-4.111,18.5v-4.522h16.36a1.233,1.233,0,1,0,0-2.466H2.466V97.753a.411.411,0,0,1,.411-.411H38.969v3.818a34.6,34.6,0,0,0,1.059,8.514H2.877A.411.411,0,0,1,2.466,109.263Zm4.111,2.877H40.753a34.365,34.365,0,0,0,1.679,4.111H6.577Zm46.039,18.5a.411.411,0,0,1-.411.411H2.877a.411.411,0,0,1-.411-.411v-4.522h16.36a1.233,1.233,0,1,0,0-2.466H2.466v-4.522a.411.411,0,0,1,.411-.411H43.759q.607,1.026,1.286,2.019a34.529,34.529,0,0,0,7.572,7.955Zm29.1-29.478a32.309,32.309,0,0,1-20.142,29.8,32.306,32.306,0,0,1-20.142-29.8V88.052L61.578,83.4,81.72,88.052Z" transform="translate(0 -73.5)" fill="#79ccff"/>
      <path id="Path_8867" data-name="Path 8867" d="M292,189.565A13.565,13.565,0,1,0,305.565,176,13.565,13.565,0,0,0,292,189.565Zm24.664,0a11.1,11.1,0,1,1-11.1-11.1A11.1,11.1,0,0,1,316.664,189.565Z" transform="translate(-243.988 -159.146)" fill="#79ccff"/>
      <path id="Path_8868" data-name="Path 8868" d="M339.1,234.625a1.234,1.234,0,0,0-1.746,1.743l3.3,3.312a1.233,1.233,0,0,0,1.745,0l6.562-6.577a1.234,1.234,0,1,0-1.746-1.743l-5.689,5.7Z" transform="translate(-281.586 -205.101)" fill="#79ccff"/>
    </g>
  </g>
</svg>
