<svg id="Security" xmlns="http://www.w3.org/2000/svg" xmlns:xlink="http://www.w3.org/1999/xlink" width="66.179" height="60.172" viewBox="0 0 66.179 60.172">
  <defs>
    <clipPath id="clip-path">
      <rect id="Rectangle_5380" data-name="Rectangle 5380" width="66.179" height="60.172" fill="none"/>
    </clipPath>
  </defs>
  <g id="Group_2225" data-name="Group 2225" clip-path="url(#clip-path)">
    <path id="Path_10107" data-name="Path 10107" d="M1.513,59.762h63.51a1.224,1.224,0,0,0,1.223-1.219V3.658A3.672,3.672,0,0,0,62.581,0H3.956A3.672,3.672,0,0,0,.29,3.658V58.542a1.224,1.224,0,0,0,1.223,1.219Zm1.219-56.1A1.228,1.228,0,0,1,3.956,2.435H62.581A1.228,1.228,0,0,1,63.8,3.658v6.1H2.733v-6.1Zm0,8.536H63.8V57.319H2.733V12.2Z" transform="translate(-0.177)"/>
  </g>
  <path id="Path_10108" data-name="Path 10108" d="M147.706,12.48h-2.443a1.219,1.219,0,1,0,0,2.439h2.443a1.219,1.219,0,1,0,0-2.439Z" transform="translate(-87.745 -7.602)"/>
  <path id="Path_10109" data-name="Path 10109" d="M128.956,12.48h-2.443a1.219,1.219,0,1,0,0,2.439h2.443a1.219,1.219,0,1,0,0-2.439Z" transform="translate(-76.323 -7.602)"/>
  <path id="Path_10110" data-name="Path 10110" d="M24.169,64.859h3.482c-.063-.793-.063-1.587-.121-2.439H24.173a1.221,1.221,0,1,0,0,2.443Z" transform="translate(-13.98 -38.024)"/>
  <path id="Path_10111" data-name="Path 10111" d="M137.838,62.4h-3.357c0,.856-.063,1.645-.121,2.439h3.482a1.221,1.221,0,1,0,0-2.443Z" transform="translate(-81.848 -38.012)"/>
  <path id="Path_10112" data-name="Path 10112" d="M24.261,88.259H29.33c-.246-.793-.426-1.587-.61-2.439h-4.4A1.227,1.227,0,0,0,23.1,87.039a1.178,1.178,0,0,0,1.161,1.223Z" transform="translate(-14.072 -52.279)"/>
  <path id="Path_10113" data-name="Path 10113" d="M135.457,85.814h-4.4c-.184.856-.367,1.645-.61,2.439h5.069a1.228,1.228,0,0,0,1.223-1.223,1.276,1.276,0,0,0-1.282-1.219Z" transform="translate(-79.466 -52.273)"/>
  <path id="Path_10114" data-name="Path 10114" d="M24.943,109.22a1.219,1.219,0,1,0,0,2.439h9.04a23.276,23.276,0,0,1-1.466-2.439H24.943Z" transform="translate(-14.45 -66.534)"/>
  <path id="Path_10115" data-name="Path 10115" d="M128.487,109.22h-7.512c-.489.852-.977,1.708-1.466,2.439h8.977a1.219,1.219,0,1,0,0-2.439Z" transform="translate(-72.802 -66.534)"/>
  <path id="Path_10116" data-name="Path 10116" d="M75.189,48.352a2.38,2.38,0,0,0-2.443-2.38h-.367a16.857,16.857,0,0,1-2.138.121c-2.443,0-7.023-.426-10.506-3.416a2.976,2.976,0,0,0-1.649-.547,2.646,2.646,0,0,0-1.587.547c-3.541,2.99-8.121,3.416-10.506,3.416a16.857,16.857,0,0,1-2.138-.121h-.367a2.5,2.5,0,0,0-1.587.551,2.281,2.281,0,0,0-.856,1.829c-.246,13.05,4.581,20.792,8.731,25,2.81,2.865,6.046,4.815,7.7,5.245a2.024,2.024,0,0,0,.61.063c.246,0,.426-.063.672-.063a21.526,21.526,0,0,0,7.7-5.245c4.092-4.209,8.977-11.952,8.731-25ZM58.09,76.281c-.184,0-15.082-5.792-14.656-27.87A15.637,15.637,0,0,0,46,48.59c2.994,0,8.063-.61,12.092-4.026,4.029,3.416,9.1,4.026,12.092,4.026a16.552,16.552,0,0,0,2.564-.18C73.172,70.485,58.274,76.281,58.09,76.281Z" transform="translate(-24.998 -25.664)"/>
  <path id="Path_10117" data-name="Path 10117" d="M81.6,69.467a5.5,5.5,0,1,0-9.157,4.088l-.489,6.1a2.473,2.473,0,0,0,.61,1.829,2.506,2.506,0,0,0,1.77.793h3.42a2.4,2.4,0,0,0,1.77-.793,2.242,2.242,0,0,0,.61-1.829l-.489-6.1A5.175,5.175,0,0,0,81.6,69.467Zm-4.4,2.806.61,7.563h-3.42L75,72.273a2.974,2.974,0,0,1-1.954-2.806A3.061,3.061,0,0,1,76.1,66.419a3.021,3.021,0,0,1,3.052,3.048A2.974,2.974,0,0,1,77.2,72.273Z" transform="translate(-43.013 -38.975)"/>
</svg>
