<svg xmlns="http://www.w3.org/2000/svg" width="84.186" height="60.016" viewBox="0 0 84.186 60.016">
  <g id="Group_2003" data-name="Group 2003" transform="translate(-851 -3076.347)">
    <g id="coding" transform="translate(851 3076.347)">
      <path id="Path_8854" data-name="Path 8854" d="M79.664,73.5H10.605a4.528,4.528,0,0,0-4.522,4.522v33.3H2.877A2.881,2.881,0,0,0,0,114.2v16.443a2.881,2.881,0,0,0,2.877,2.877H29.186a2.881,2.881,0,0,0,2.877-2.877v-3.7h47.6a4.528,4.528,0,0,0,4.522-4.522v-44.4A4.528,4.528,0,0,0,79.664,73.5ZM10.605,75.966H79.664a2.059,2.059,0,0,1,2.055,2.055v3.7H8.55v-3.7A2.059,2.059,0,0,1,10.605,75.966ZM29.6,130.638a.411.411,0,0,1-.411.411H2.877a.411.411,0,0,1-.411-.411V114.2a.411.411,0,0,1,.411-.411H29.186a.411.411,0,0,1,.411.411Zm-.411-19.32H15.127V91.176a.411.411,0,0,1,.411-.411H74.732a.411.411,0,0,1,.411.411v26.308a.411.411,0,0,1-.411.411H32.063v-3.7a2.881,2.881,0,0,0-2.877-2.877Zm50.479,13.154h-47.6v-4.111H74.732a2.881,2.881,0,0,0,2.877-2.877V91.176A2.881,2.881,0,0,0,74.732,88.3H15.538a2.881,2.881,0,0,0-2.877,2.877v20.142H8.55V84.188H81.72v38.229A2.059,2.059,0,0,1,79.664,124.472Z" transform="translate(0 -73.5)" fill="#79ccff"/>
      <path id="Path_8855" data-name="Path 8855" d="M458.233,100.966h1.644a1.233,1.233,0,1,0,0-2.466h-1.644a1.233,1.233,0,0,0,0,2.466Z" transform="translate(-381.857 -94.389)" fill="#79ccff"/>
      <path id="Path_8856" data-name="Path 8856" d="M418.233,100.966h1.644a1.233,1.233,0,0,0,0-2.466h-1.644a1.233,1.233,0,0,0,0,2.466Z" transform="translate(-348.434 -94.389)" fill="#79ccff"/>
      <path id="Path_8857" data-name="Path 8857" d="M173.466,233.6a1.232,1.232,0,0,0,.891-2.085l-4.418-4.629,4.418-4.629a1.233,1.233,0,1,0-1.784-1.7l-5.232,5.48a1.236,1.236,0,0,0,0,1.7l5.232,5.48A1.228,1.228,0,0,0,173.466,233.6Z" transform="translate(-139.542 -196.053)" fill="#79ccff"/>
      <path id="Path_8858" data-name="Path 8858" d="M335.564,233.256a1.237,1.237,0,0,0,1.745-.041l5.232-5.48a1.236,1.236,0,0,0,0-1.7l-5.232-5.48a1.233,1.233,0,1,0-1.784,1.7l4.418,4.629-4.418,4.629A1.235,1.235,0,0,0,335.564,233.256Z" transform="translate(-280.07 -196.053)" fill="#79ccff"/>
      <path id="Path_8859" data-name="Path 8859" d="M251.949,222.348a1.235,1.235,0,0,0,1.549-.8L258.73,205.1a1.233,1.233,0,0,0-2.351-.746L251.146,220.8A1.235,1.235,0,0,0,251.949,222.348Z" transform="translate(-209.803 -182.121)" fill="#79ccff"/>
      <path id="Path_8860" data-name="Path 8860" d="M57.676,383.5H41.233a1.233,1.233,0,0,0,0,2.466H57.676a1.233,1.233,0,0,0,0-2.466Z" transform="translate(-33.423 -332.528)" fill="#79ccff"/>
      <path id="Path_8861" data-name="Path 8861" d="M94.441,343.5H85.233a1.233,1.233,0,1,0,0,2.466h9.208a1.233,1.233,0,1,0,0-2.466Z" transform="translate(-70.188 -299.105)" fill="#79ccff"/>
      <path id="Path_8862" data-name="Path 8862" d="M41.233,345.966h.788a1.233,1.233,0,1,0,0-2.466h-.788a1.233,1.233,0,1,0,0,2.466Z" transform="translate(-33.423 -299.105)" fill="#79ccff"/>
    </g>
  </g>
</svg>
