<svg xmlns="http://www.w3.org/2000/svg" width="36.083" height="36.083" viewBox="0 0 36.083 36.083">
  <g id="Group_6525" data-name="Group 6525" transform="translate(-711 -11204.195)">
    <g id="Group_2229" data-name="Group 2229" transform="translate(711 11204.195)">
      <path id="Path_10122" data-name="Path 10122" d="M31.92,49.852A18.041,18.041,0,1,1,49.962,31.812,18.061,18.061,0,0,1,31.92,49.852Zm0-34.643a16.6,16.6,0,1,0,16.6,16.6A16.621,16.621,0,0,0,31.92,15.21Z" transform="translate(-13.878 -13.77)" fill="#fff"/>
    </g>
    <g id="layer1" transform="translate(440.444 11048.168)">
      <path id="path1009" d="M281.535,167.31l5.576,7.456-5.611,6.062h1.263l4.913-5.307,3.969,5.307h4.3l-5.89-7.875,5.223-5.642h-1.263l-4.524,4.888-3.655-4.888Zm1.857.93h1.974l8.718,11.657h-1.974Z" fill="#fff"/>
    </g>
  </g>
</svg>
