<svg xmlns="http://www.w3.org/2000/svg" width="84.238" height="84.193" viewBox="0 0 84.238 84.193">
  <g id="Group_2004" data-name="Group 2004" transform="translate(-851 -3439.903)">
    <g id="server_cloud" data-name="server cloud" transform="translate(851 3439.903)">
      <path id="Path_8869" data-name="Path 8869" d="M77.557,27.759A16,16,0,0,0,61.643,10.1c-.393,0-.789.015-1.182.044A21.67,21.67,0,0,0,21.492,14.9c-.261-.015-.521-.023-.779-.023a12.881,12.881,0,0,0-12.861,12.8H7.81a7.81,7.81,0,0,0,0,15.62H17.84v4.522A2.881,2.881,0,0,0,20.718,50.7h9.455V58.3a2.064,2.064,0,0,1-1.631,2.011l-5.466,1.151a7.805,7.805,0,1,0,.52,2.8c0-.128,0-.255-.01-.381l5.464-1.151A4.541,4.541,0,0,0,32.639,58.3V50.7H40.86V65.33a9.454,9.454,0,1,0,2.466,0V50.7h8.221V58.3a4.541,4.541,0,0,0,3.589,4.425L60.6,63.88c0,.127-.01.253-.01.381a7.817,7.817,0,1,0,.52-2.8l-5.466-1.151A2.064,2.064,0,0,1,54.014,58.3V50.7h9.455a2.881,2.881,0,0,0,2.877-2.877V43.3h10.03a7.81,7.81,0,0,0,1.181-15.538ZM15.785,69.605a5.344,5.344,0,1,1,5.344-5.344A5.344,5.344,0,0,1,15.785,69.605Zm33.3,5.1a6.988,6.988,0,1,1-6.988-6.988A6.988,6.988,0,0,1,49.081,74.7ZM68.4,58.918a5.344,5.344,0,1,1-5.344,5.344A5.344,5.344,0,0,1,68.4,58.918Zm-4.522-11.1a.411.411,0,0,1-.411.411H20.718a.411.411,0,0,1-.411-.411V36.309a.411.411,0,0,1,.411-.411H63.468a.411.411,0,0,1,.411.411Zm12.5-6.988H66.346V36.309a2.881,2.881,0,0,0-2.877-2.877H20.718a2.881,2.881,0,0,0-2.877,2.877v4.522H7.81a5.344,5.344,0,0,1,0-10.688H9.142a1.235,1.235,0,0,0,1.228-1.355c-.035-.349-.053-.7-.053-1.042A10.4,10.4,0,0,1,22.211,17.454a1.235,1.235,0,0,0,1.365-.9,19.2,19.2,0,0,1,34.2-5.985,15.961,15.961,0,0,0-5.965,2.9,1.238,1.238,0,0,0,1.521,1.953,13.494,13.494,0,0,1,6.626-2.748h0a13.762,13.762,0,0,1,1.685-.105A13.539,13.539,0,0,1,74.931,28.688a1.235,1.235,0,0,0,1.212,1.467h.233a5.344,5.344,0,0,1,0,10.688Z" transform="translate(0 0.035)" fill="#79ccff"/>
      <path id="Path_8870" data-name="Path 8870" d="M144.666,233.5h-4.933a1.233,1.233,0,0,0-1.233,1.233v4.933a1.233,1.233,0,0,0,1.233,1.233h4.933a1.233,1.233,0,0,0,1.233-1.233v-4.933A1.233,1.233,0,0,0,144.666,233.5Zm-1.233,4.933h-2.466v-2.466h2.466Z" transform="translate(-115.727 -195.101)" fill="#79ccff"/>
      <path id="Path_8871" data-name="Path 8871" d="M204.666,233.5h-4.933a1.233,1.233,0,0,0-1.233,1.233v4.933a1.233,1.233,0,0,0,1.233,1.233h4.933a1.233,1.233,0,0,0,1.233-1.233v-4.933A1.233,1.233,0,0,0,204.666,233.5Zm-1.233,4.933h-2.466v-2.466h2.466Z" transform="translate(-165.861 -195.101)" fill="#79ccff"/>
      <path id="Path_8872" data-name="Path 8872" d="M292.887,248.5H279.733a1.233,1.233,0,1,0,0,2.466h13.154a1.233,1.233,0,0,0,0-2.466Z" transform="translate(-232.707 -207.634)" fill="#79ccff"/>
    </g>
  </g>
</svg>
