<svg xmlns="http://www.w3.org/2000/svg" xmlns:xlink="http://www.w3.org/1999/xlink" width="66.62" height="60" viewBox="0 0 66.62 60">
  <defs>
    <clipPath id="clip-path">
      <path id="Path_10038" data-name="Path 10038" d="M173.457,174.3h39.528v35.866H173.457Zm0,0" transform="translate(-173.457 -174.301)"/>
    </clipPath>
    <clipPath id="clip-path-2">
      <path id="Path_10048" data-name="Path 10048" d="M112.5,120h57.111v56.889H112.5Zm0,0" transform="translate(-112.5 -120)"/>
    </clipPath>
  </defs>
  <g id="E_commerce" data-name="E commerce" transform="translate(-112.5 -120)">
    <path id="Path_10035" data-name="Path 10035" d="M188.4,245.27H190.5v-2.106H188.4v2.106" transform="translate(-42.164 -68.424)" fill="#100f0d"/>
    <path id="Path_10036" data-name="Path 10036" d="M231.031,245.27h2.106v-2.106h-2.106v2.106" transform="translate(-65.851 -68.424)" fill="#100f0d"/>
    <g id="Group_2216" data-name="Group 2216" transform="translate(139.592 144.134)" clip-path="url(#clip-path)">
      <path id="Path_10037" data-name="Path 10037" d="M200.126,208.2a2.1,2.1,0,1,1,2.108-2.1A2.107,2.107,0,0,1,200.126,208.2Zm-21.3-11.578-2.608-9.563,29.293-1.953-2.658,11.516Zm2.354,11.578a2.1,2.1,0,1,1,2.1-2.1A2.107,2.107,0,0,1,181.178,208.2Zm31.835-31.611-.511-2.044-4.837,1.21L206,182.965l-32.5,2.167,3.71,13.6h25.148l-.792,3.432a4.14,4.14,0,0,0-1.448-.274,4.193,4.193,0,0,0-3.623,2.108H184.8a4.181,4.181,0,1,0,.585,2.1h10.526a4.211,4.211,0,1,0,7.508-2.588l6.005-26.023,3.584-.9" transform="translate(-173.485 -174.438)" fill="#100f0d"/>
    </g>
    <path id="Path_10039" data-name="Path 10039" d="M192.607,202.9H188.4v2.1h4.212v-2.1" transform="translate(-42.164 -46.057)" fill="#100f0d"/>
    <path id="Path_10040" data-name="Path 10040" d="M211.558,202.9h-4.21v2.1h4.21v-2.1" transform="translate(-52.693 -46.057)" fill="#100f0d"/>
    <path id="Path_10041" data-name="Path 10041" d="M226.293,202.9v2.1h4.212v-2.1h-4.212" transform="translate(-63.218 -46.057)" fill="#100f0d"/>
    <path id="Path_10042" data-name="Path 10042" d="M202.083,210.008h-4.212v2.1h4.212v-2.1" transform="translate(-47.428 -50.004)" fill="#100f0d"/>
    <path id="Path_10043" data-name="Path 10043" d="M221.03,210.008h-4.21v2.1h4.21v-2.1" transform="translate(-57.956 -50.004)" fill="#100f0d"/>
    <path id="Path_10044" data-name="Path 10044" d="M207.348,219.217h4.21v-2.1h-4.21v2.1" transform="translate(-52.693 -53.952)" fill="#100f0d"/>
    <path id="Path_10045" data-name="Path 10045" d="M226.293,219.217h4.212v-2.1h-4.212v2.1" transform="translate(-63.218 -53.952)" fill="#100f0d"/>
    <path id="Path_10046" data-name="Path 10046" d="M188.4,219.217h4.212v-2.1H188.4v2.1" transform="translate(-42.164 -53.952)" fill="#100f0d"/>
    <g id="Group_2217" data-name="Group 2217" transform="translate(112.5 120)" clip-path="url(#clip-path-2)">
      <path id="Path_10047" data-name="Path 10047" d="M121.76,166.327a28.916,28.916,0,0,1,5.622-2.614,24.584,24.584,0,0,0,6.1,9.922A26.376,26.376,0,0,1,121.76,166.327Zm11.717-43.109a24.584,24.584,0,0,0-6.1,9.936,28.808,28.808,0,0,1-5.613-2.63A26.345,26.345,0,0,1,133.477,123.217Zm26.816,7.306a28.784,28.784,0,0,1-5.614,2.63,24.563,24.563,0,0,0-6.1-9.936A26.353,26.353,0,0,1,160.293,130.523Zm-3.175,16.851a46.987,46.987,0,0,0-1.792-12.226,30.734,30.734,0,0,0,6.352-3.007,26.191,26.191,0,0,1,5.639,15.232ZM142.081,137.4a45.06,45.06,0,0,0,11.219-1.625,44.914,44.914,0,0,1,1.713,11.6H142.081Zm-2.108-15.212V135.3a43,43,0,0,1-10.572-1.521C131.734,127.259,135.574,122.809,139.973,122.19Zm2.108,0c4.4.62,8.24,5.069,10.571,11.587a43,43,0,0,1-10.571,1.521Zm-15.04,25.184a44.913,44.913,0,0,1,1.713-11.6,45.064,45.064,0,0,0,11.219,1.625v9.972Zm-12.3,0a26.177,26.177,0,0,1,5.639-15.232,30.713,30.713,0,0,0,6.352,3.007,46.988,46.988,0,0,0-1.792,12.226Zm12,14.342a30.8,30.8,0,0,0-6.358,2.993,26.17,26.17,0,0,1-5.639-15.231h10.2A46.9,46.9,0,0,0,126.734,161.716Zm15.347,15.132v-6.314h-2.108v4.127c-4.4-.618-8.241-5.071-10.575-11.592a43.015,43.015,0,0,1,10.6-1.535l-.045-2.108a45.015,45.015,0,0,0-11.2,1.642,44.925,44.925,0,0,1-1.712-11.59h12.932v3.158h2.108v-3.158h25.264v1.054h2.1v-3.158h-.026a28.419,28.419,0,1,0-28.4,29.474h1.054" transform="translate(-112.558 -120.002)" fill="#100f0d"/>
    </g>
  </g>
</svg>
