<svg xmlns="http://www.w3.org/2000/svg" width="36.083" height="36.083" viewBox="0 0 36.083 36.083">
  <g id="Group_2232" data-name="Group 2232" transform="translate(-164 -9453.244)">
    <g id="Group_2231" data-name="Group 2231" transform="translate(164 9453.244)">
      <path id="Path_10122" data-name="Path 10122" d="M31.92,49.852A18.041,18.041,0,1,1,49.962,31.812,18.061,18.061,0,0,1,31.92,49.852Zm0-34.643a16.6,16.6,0,1,0,16.6,16.6A16.621,16.621,0,0,0,31.92,15.21Z" transform="translate(-13.878 -13.77)" fill="#fff"/>
    </g>
    <g id="_3066989_circle_high_quality_job_linkedin_media_icon" data-name="3066989_circle_high quality_job_linkedin_media_icon" transform="translate(163.083 9452.244)">
      <g id="Linkedin" transform="translate(10.218 8.238)">
        <path id="Path_10125" data-name="Path 10125" d="M283.565,373.7H287.4l0-13.427H283.56Z" transform="translate(-283.556 -355.524)" fill="#fff"/>
        <path id="Path_10126" data-name="Path 10126" d="M454.559,363.867a6.048,6.048,0,0,0-.479-1.551,3.762,3.762,0,0,0-.505-.793,3.355,3.355,0,0,0-.864-.726,3.961,3.961,0,0,0-.884-.388,4.067,4.067,0,0,0-.552-.1,9.177,9.177,0,0,0-1.712.011q-.243.028-.482.069t-.473.1a1.994,1.994,0,0,0-.718.393,2.253,2.253,0,0,0-.51.643,2.2,2.2,0,0,0-.19.454,1.479,1.479,0,0,0-.034.2h-.06l0-1.9h-3.831l0,13.43h3.806v-8.187a1.285,1.285,0,0,1,.671-1.068,2.681,2.681,0,0,1,1.234-.269,3.491,3.491,0,0,1,.577.013,1.535,1.535,0,0,1,.9.367,1.971,1.971,0,0,1,.473,1.5V373.7h3.77v-7.939A11.008,11.008,0,0,0,454.559,363.867Z" transform="translate(-437.5 -355.525)" fill="#fff"/>
        <ellipse id="Ellipse_497" data-name="Ellipse 497" cx="1.925" cy="1.925" rx="1.925" ry="1.925" fill="#fff"/>
      </g>
    </g>
  </g>
</svg>
