<svg xmlns="http://www.w3.org/2000/svg" width="56.491" height="60" viewBox="0 0 56.491 60">
  <g id="US_staffing" data-name="US staffing" transform="translate(-4.715 -3.013)">
    <path id="Path_10491" data-name="Path 10491" d="M61.147,51.844,55.652,33.125a1.035,1.035,0,0,0-1.252-.7L47.55,34.16a1.035,1.035,0,0,0-.652.486,1.086,1.086,0,0,0-.093.807l.176.6a12.5,12.5,0,0,1-5.112-1.3l-4.6-2.328a8.279,8.279,0,0,0-5.919-.59l-3.663.983-8.93.373.186-.579a1.035,1.035,0,0,0-.714-1.3L11.4,29.441a1.035,1.035,0,0,0-1.262.683L4.762,47.167a1.086,1.086,0,0,0,.072.807,1.035,1.035,0,0,0,.642.507l6.778,1.863h.269a1.035,1.035,0,0,0,1.035-.724l2.432,3.1A27.091,27.091,0,0,0,22.6,58.891l3.891,2.546A4.139,4.139,0,0,0,31.3,61.2a3.664,3.664,0,0,0,1.252-1.914h0a3.745,3.745,0,0,0,2.38.849A3.695,3.695,0,0,0,37.6,58.995a3.447,3.447,0,0,0,.776-1.3A3.994,3.994,0,0,0,43.3,57.1a3.539,3.539,0,0,0,.921-1.8,3.86,3.86,0,0,0,4.47-.849,3.724,3.724,0,0,0,.755-1.252l2.452-.414.4,1.376a1.035,1.035,0,0,0,1.035.745h.259l6.85-1.738a1.035,1.035,0,0,0,.652-.486,1.1,1.1,0,0,0,.052-.838ZM7.079,46.764l4.76-15.077L16.662,33l-.269.952L12.253,47.126l-.3.942Zm40.108,6.281a1.852,1.852,0,0,1-2.442.176l-4.408-3.487a1.035,1.035,0,0,0-1.283,1.625l2.577,2.07a1.594,1.594,0,0,1,.611,1.138,1.439,1.439,0,0,1-.414,1.128,1.925,1.925,0,0,1-2.6.093l-4.263-3.746A1.034,1.034,0,1,0,33.6,53.593L36.053,55.7a1.284,1.284,0,0,1,.455.921,1.242,1.242,0,0,1-.362.931,1.718,1.718,0,0,1-2.245.135l-4.429-3.725a1.035,1.035,0,0,0-1.335,1.583l2.07,1.718a1.532,1.532,0,0,1,.466,1.1,1.573,1.573,0,0,1-.621,1.231,2.07,2.07,0,0,1-2.38.1l-3.88-2.546A24.348,24.348,0,0,1,17.7,51.524L14.323,47.24l.517-1.614L18.1,35.277l7.678-.321-3.684,5.174a3.508,3.508,0,0,0,.714,4.843,3.994,3.994,0,0,0,5.267-.29l1.656-1.656a5.019,5.019,0,0,1,2.815-1.387,5.173,5.173,0,0,1,3.963,1.035L47,50.954a1.469,1.469,0,0,1,.559,1.035,1.376,1.376,0,0,1-.393,1.055ZM49.506,51.1a3.57,3.57,0,0,0-1.2-1.749L37.813,41.072a7.243,7.243,0,0,0-9.52.528l-1.656,1.656a1.956,1.956,0,0,1-2.525.135,1.459,1.459,0,0,1-.31-2.07l4.7-6.581,3.415-.921a6.209,6.209,0,0,1,4.45.445l4.6,2.328a14.58,14.58,0,0,0,6.571,1.552h.093l3.7,12.645Zm4.532,1.531-.393-1.3L49.361,36.788l-.269-.9,4.853-1.231L58.819,51.4Z" transform="translate(0 0.918)"/>
    <path id="Path_10492" data-name="Path 10492" d="M21.07,24.264a15.2,15.2,0,0,0,22.7-.052,1.5,1.5,0,0,0,.176-.269A1.034,1.034,0,0,0,44,23.281a11.92,11.92,0,0,0-7.575-8.434,6.6,6.6,0,1,0-8.051,0,11.879,11.879,0,0,0-7.554,8.33,1.063,1.063,0,0,0,.248,1.087ZM27.848,9.612a4.543,4.543,0,1,1,4.543,4.543h0a4.543,4.543,0,0,1-4.543-4.543Zm4.543,6.612a9.841,9.841,0,0,1,9.417,7.016,13.121,13.121,0,0,1-18.9,0,9.862,9.862,0,0,1,9.479-7.016Z" transform="translate(0.558)"/>
  </g>
</svg>
