<svg xmlns="http://www.w3.org/2000/svg" xmlns:xlink="http://www.w3.org/1999/xlink" width="60.471" height="60.172" viewBox="0 0 60.471 60.172">
  <defs>
    <clipPath id="clip-path">
      <path id="Path_10015" data-name="Path 10015" d="M131,132h60.471v60.172H131Zm0,0"/>
    </clipPath>
  </defs>
  <g id="Cloud_Computing" data-name="Cloud Computing" transform="translate(-131 -132)" clip-path="url(#clip-path)">
    <path id="Path_10014" data-name="Path 10014" d="M181.522,165.392a9.835,9.835,0,0,0,.991-.044,9.7,9.7,0,0,0,.981-.14,10.123,10.123,0,0,0,1.9-.565q.461-.188.9-.42a9.681,9.681,0,0,0,.853-.5c.276-.184.541-.378.8-.588a9.729,9.729,0,0,0,.738-.663,9.861,9.861,0,0,0,.671-.732c.211-.255.407-.519.594-.793s.358-.558.514-.849.3-.589.429-.9a9.282,9.282,0,0,0,.338-.932c.1-.316.18-.638.247-.962a9.694,9.694,0,0,0,.151-.981,10.049,10.049,0,0,0,.01-1.982,9.541,9.541,0,0,0-.14-.983c-.063-.324-.14-.646-.234-.964s-.205-.629-.328-.937-.266-.606-.42-.9-.322-.577-.5-.853a9.576,9.576,0,0,0-.588-.8c-.207-.257-.428-.5-.661-.74s-.477-.458-.732-.669-.519-.41-.793-.6a9.61,9.61,0,0,0-.847-.514c-.291-.159-.589-.3-.894-.431s-.615-.24-.931-.339-.635-.18-.96-.247a10.16,10.16,0,0,0-1.969-.2,5.714,5.714,0,0,0-2-3.179,5.75,5.75,0,0,0-.794-.529,5.559,5.559,0,0,0-.87-.391,5.752,5.752,0,0,0-.924-.24,5.845,5.845,0,0,0-1.691-.033,8.714,8.714,0,0,0-.962-1.006,8.822,8.822,0,0,0-1.106-.847,9.144,9.144,0,0,0-1.225-.663,8.951,8.951,0,0,0-1.313-.462,8.713,8.713,0,0,0-1.37-.253,8.831,8.831,0,0,0-1.392-.038,9,9,0,0,0-2.717.575,14.311,14.311,0,0,0-1.386-1.6A14.03,14.03,0,0,0,160.47,134a13.987,13.987,0,0,0-12.285-.3,14.273,14.273,0,0,0-1.855,1.029,14.02,14.02,0,0,0-4.351,4.571,14.033,14.033,0,0,0-1.577,3.923,14.144,14.144,0,0,0-.328,2.1,10.17,10.17,0,0,0-1.8.5,10.156,10.156,0,0,0-3.174,1.94,10.1,10.1,0,0,0-2.258,2.961,10.026,10.026,0,0,0-.684,1.74,10.184,10.184,0,0,0-.351,1.838,10.157,10.157,0,0,0,.33,3.71,10.141,10.141,0,0,0,1.648,3.339A10.107,10.107,0,0,0,138.2,164.7a10.309,10.309,0,0,0,1.8.514,10.141,10.141,0,0,0,1.861.173h2.175v7.149a5.524,5.524,0,0,1-.086.966,5.6,5.6,0,0,1-.251.937,5.23,5.23,0,0,1-.408.878,5.577,5.577,0,0,1-2.024,2.047,5.523,5.523,0,0,1-1.809.677,3.5,3.5,0,0,0-.186-.426,3.857,3.857,0,0,0-.514-.772,4.059,4.059,0,0,0-.322-.335,4.12,4.12,0,0,0-.36-.3,3.7,3.7,0,0,0-.391-.251,3.742,3.742,0,0,0-.416-.205,4.254,4.254,0,0,0-.439-.153,3.779,3.779,0,0,0-.454-.1,4.171,4.171,0,0,0-.462-.048,4.321,4.321,0,0,0-.464.006,4.418,4.418,0,0,0-.46.063,3.732,3.732,0,0,0-.884.28,3.86,3.86,0,0,0-.412.215,4.057,4.057,0,0,0-.383.263,3.8,3.8,0,0,0-.351.306,4.141,4.141,0,0,0-.312.345,4.193,4.193,0,0,0-.27.378,3.823,3.823,0,0,0-.224.408,3.869,3.869,0,0,0-.173.431,3.518,3.518,0,0,0-.123.448,3.732,3.732,0,0,0-.071.46,4.08,4.08,0,0,0,.023.928,4.18,4.18,0,0,0,.094.456,4.038,4.038,0,0,0,.144.441,3.769,3.769,0,0,0,.2.422,4.271,4.271,0,0,0,.242.4,4.455,4.455,0,0,0,.289.366,4.044,4.044,0,0,0,.329.328,4.328,4.328,0,0,0,.366.289,4.077,4.077,0,0,0,.4.243,3.779,3.779,0,0,0,.422.194,3.286,3.286,0,0,0,.441.144,3.6,3.6,0,0,0,.454.092,3.767,3.767,0,0,0,.464.04,4.212,4.212,0,0,0,.464-.017,3.635,3.635,0,0,0,.458-.071,4.07,4.07,0,0,0,.45-.123,4.021,4.021,0,0,0,.429-.176,4.289,4.289,0,0,0,.408-.224,4,4,0,0,0,.378-.272,4.106,4.106,0,0,0,.343-.314,4.389,4.389,0,0,0,.306-.349,4.085,4.085,0,0,0,.261-.385,4.571,4.571,0,0,0,.215-.412,4.42,4.42,0,0,0,.165-.435,8.132,8.132,0,0,0,2.766-.9,8.185,8.185,0,0,0,3.134-3A8.17,8.17,0,0,0,146.445,174a8.087,8.087,0,0,0,.132-1.455v-7.149h8.7v19.231a4.154,4.154,0,0,0-.432.176,3.786,3.786,0,0,0-.408.226,3.651,3.651,0,0,0-.381.27,4.06,4.06,0,0,0-.345.313,4.179,4.179,0,0,0-.569.738,3.917,3.917,0,0,0-.217.414,4.064,4.064,0,0,0-.165.435,3.835,3.835,0,0,0-.115.454,3.949,3.949,0,0,0-.06.462,4.518,4.518,0,0,0-.006.466,4.387,4.387,0,0,0,.048.466,4.069,4.069,0,0,0,.1.454,3.991,3.991,0,0,0,.157.441,3.359,3.359,0,0,0,.2.419,3.968,3.968,0,0,0,.55.753,3.968,3.968,0,0,0,.337.322,3.724,3.724,0,0,0,.374.283,4.294,4.294,0,0,0,.4.234,3.692,3.692,0,0,0,.429.186,3.85,3.85,0,0,0,.905.217,3.975,3.975,0,0,0,.93,0,3.847,3.847,0,0,0,.906-.217,3.731,3.731,0,0,0,.429-.186,4.436,4.436,0,0,0,.4-.234,4.057,4.057,0,0,0,.374-.283,3.969,3.969,0,0,0,.886-1.074,3.6,3.6,0,0,0,.205-.419,3.679,3.679,0,0,0,.155-.441,3.741,3.741,0,0,0,.1-.454,3.89,3.89,0,0,0,.05-.466,4.005,4.005,0,0,0-.067-.928,3.841,3.841,0,0,0-.115-.454,4.061,4.061,0,0,0-.165-.435,4.356,4.356,0,0,0-.218-.414,3.59,3.59,0,0,0-.263-.384,3.765,3.765,0,0,0-.305-.354,3.994,3.994,0,0,0-.345-.313,3.6,3.6,0,0,0-.381-.27,3.66,3.66,0,0,0-.409-.226,3.992,3.992,0,0,0-.431-.176V165.392h8.7v15.03a4.054,4.054,0,0,0-.431.176,3.4,3.4,0,0,0-.409.224,4.244,4.244,0,0,0-.378.27,4.087,4.087,0,0,0-.345.314,4.469,4.469,0,0,0-.307.353,4.089,4.089,0,0,0-.262.385,4.147,4.147,0,0,0-.217.412,4.1,4.1,0,0,0-.165.437,3.665,3.665,0,0,0-.115.451,4.216,4.216,0,0,0-.06.462,3.765,3.765,0,0,0,0,.466,3.99,3.99,0,0,0,.15.92,3.56,3.56,0,0,0,.155.439,3.852,3.852,0,0,0,.205.42,4.384,4.384,0,0,0,.253.391,4.037,4.037,0,0,0,.3.359,4.021,4.021,0,0,0,1.112.839,4.267,4.267,0,0,0,.427.186,4.128,4.128,0,0,0,.445.134,4.233,4.233,0,0,0,.46.082,3.975,3.975,0,0,0,.93,0,4.094,4.094,0,0,0,.458-.082,3.92,3.92,0,0,0,.445-.134,4.477,4.477,0,0,0,.429-.186,4.192,4.192,0,0,0,.4-.237,3.939,3.939,0,0,0,.709-.6,3.989,3.989,0,0,0,.757-1.171,4.3,4.3,0,0,0,.155-.439,4.16,4.16,0,0,0,.1-.456,3.813,3.813,0,0,0,.048-.464,4.377,4.377,0,0,0-.006-.466,3.978,3.978,0,0,0-.06-.462,4.218,4.218,0,0,0-.113-.451,4.03,4.03,0,0,0-.383-.849,3.733,3.733,0,0,0-.263-.385,4.043,4.043,0,0,0-.306-.353,4.171,4.171,0,0,0-.345-.314,4.438,4.438,0,0,0-.381-.27,3.515,3.515,0,0,0-.408-.224,3.907,3.907,0,0,0-.433-.176v-15.03h7.9v5.739a7.93,7.93,0,0,0,.128,1.422,8.021,8.021,0,0,0,.381,1.378,8.161,8.161,0,0,0,.619,1.288,8.059,8.059,0,0,0,.838,1.156,8.024,8.024,0,0,0,4.923,2.666,3.641,3.641,0,0,0,.165.435,3.8,3.8,0,0,0,.216.414,3.937,3.937,0,0,0,.261.386,4.459,4.459,0,0,0,.305.354,4.091,4.091,0,0,0,.345.314,4.024,4.024,0,0,0,.378.271,3.837,3.837,0,0,0,.407.226,4.548,4.548,0,0,0,.433.178,3.7,3.7,0,0,0,.45.124,3.948,3.948,0,0,0,.46.071,3.878,3.878,0,0,0,.466.017,3.464,3.464,0,0,0,.465-.038,3.777,3.777,0,0,0,.458-.092,4.077,4.077,0,0,0,.443-.145,3.866,3.866,0,0,0,.422-.194,4.051,4.051,0,0,0,.4-.245,4.141,4.141,0,0,0,.368-.289,4.474,4.474,0,0,0,.33-.331,4.321,4.321,0,0,0,.289-.366,3.681,3.681,0,0,0,.245-.4,4.511,4.511,0,0,0,.2-.422c.057-.147.1-.295.147-.445a3.947,3.947,0,0,0,.115-1.389,3.976,3.976,0,0,0-.071-.462,3.749,3.749,0,0,0-.124-.45,3.978,3.978,0,0,0-.176-.433,3.821,3.821,0,0,0-.224-.408,4.118,4.118,0,0,0-.27-.381,4.072,4.072,0,0,0-.314-.345,3.916,3.916,0,0,0-.353-.307,3.391,3.391,0,0,0-.384-.263,4.02,4.02,0,0,0-.412-.218,4.129,4.129,0,0,0-.437-.165,3.806,3.806,0,0,0-.452-.115,3.744,3.744,0,0,0-.462-.06,4.247,4.247,0,0,0-.467-.006,3.9,3.9,0,0,0-.464.048,3.75,3.75,0,0,0-.453.1,3.913,3.913,0,0,0-.439.155,4.293,4.293,0,0,0-.42.205,4.03,4.03,0,0,0-.391.253,4.109,4.109,0,0,0-.36.3,4.192,4.192,0,0,0-.6.711,3.985,3.985,0,0,0-.234.4,4.168,4.168,0,0,0-.188.429,5.417,5.417,0,0,1-1.744-.665,5.529,5.529,0,0,1-.763-.548,5.493,5.493,0,0,1-1.187-1.443,5.435,5.435,0,0,1-.391-.851,5.654,5.654,0,0,1-.238-.907,5.373,5.373,0,0,1-.08-.937V165.38Zm-45.795,15.457a1.427,1.427,0,0,1-.544-.113,1.433,1.433,0,0,1-.765-.778,1.438,1.438,0,0,1-.1-.546,1.485,1.485,0,0,1,.111-.545,1.409,1.409,0,0,1,.312-.46,1.383,1.383,0,0,1,.465-.307,1.432,1.432,0,0,1,1.089,0,1.445,1.445,0,0,1,.462.312,1.426,1.426,0,0,1,.305,1.558,1.435,1.435,0,0,1-1.33.878Zm20.824,8.973a1.436,1.436,0,0,1-1.006-.421,1.418,1.418,0,0,1-.416-1.01,1.4,1.4,0,0,1,.109-.548,1.431,1.431,0,0,1,.772-.771,1.427,1.427,0,0,1,1.551,2.331,1.426,1.426,0,0,1-1.01.419Zm11.252-4.2a1.45,1.45,0,0,1-.548-.107,1.4,1.4,0,0,1-.464-.312,1.415,1.415,0,0,1-.42-1.01,1.414,1.414,0,0,1,.109-.55,1.394,1.394,0,0,1,.309-.465,1.442,1.442,0,0,1,.463-.312,1.433,1.433,0,0,1,1.56.31,1.392,1.392,0,0,1,.309.464,1.424,1.424,0,0,1,.111.548,1.457,1.457,0,0,1-.111.548,1.426,1.426,0,0,1-.772.773A1.388,1.388,0,0,1,167.8,185.618Zm19.848-9.217a1.411,1.411,0,0,1,.545.109,1.425,1.425,0,0,1,.772.774,1.43,1.43,0,0,1,0,1.094,1.439,1.439,0,0,1-.309.462,1.428,1.428,0,0,1-2.018,0,1.419,1.419,0,0,1-.307-1.556,1.385,1.385,0,0,1,.309-.462,1.421,1.421,0,0,1,.462-.312A1.438,1.438,0,0,1,187.651,176.4ZM134.3,155.278a7.678,7.678,0,0,1,.134-1.415,7.518,7.518,0,0,1,.4-1.366,7.546,7.546,0,0,1,6.549-4.761l1.2-.092v-1.2a11.565,11.565,0,0,1,.148-1.844,11.445,11.445,0,0,1,.443-1.794,11.213,11.213,0,0,1,.726-1.7,11.431,11.431,0,0,1,2.216-2.944,11.643,11.643,0,0,1,1.435-1.167,11.417,11.417,0,0,1,3.331-1.57,11.37,11.37,0,0,1,1.811-.362,11.085,11.085,0,0,1,1.847-.067,11.385,11.385,0,0,1,5.267,1.556,11.159,11.159,0,0,1,1.514,1.06,11.311,11.311,0,0,1,2.424,2.775l.638,1.017,1.054-.571a6.164,6.164,0,0,1,3.022-.766,6.376,6.376,0,0,1,5.307,2.85l.522.788.9-.272a3.266,3.266,0,0,1,.719-.127,3.042,3.042,0,0,1,.728.042,3.125,3.125,0,0,1,.7.207,3.175,3.175,0,0,1,.634.366,3.26,3.26,0,0,1,.531.5,3.129,3.129,0,0,1,.65,1.3,3.145,3.145,0,0,1,.086.725v1.276h2.292a7.561,7.561,0,0,1,6.98,10.457,7.567,7.567,0,0,1-1.637,2.453,7.515,7.515,0,0,1-2.451,1.64,7.509,7.509,0,0,1-2.892.575H141.856a7.537,7.537,0,0,1-2.889-.577,7.5,7.5,0,0,1-1.305-.7,7.546,7.546,0,0,1-2.084-2.084,7.738,7.738,0,0,1-.7-1.307,7.564,7.564,0,0,1-.577-2.894Zm0,0" transform="translate(-0.353 -0.2)"/>
  </g>
</svg>
