<svg xmlns="http://www.w3.org/2000/svg" width="56.147" height="64.172" viewBox="0 0 56.147 64.172">
  <g id="Layer_x0020_1" transform="translate(-107 -0.593)">
    <path id="Path_10496" data-name="Path 10496" d="M152.166,31.446a3.347,3.347,0,1,1,3.347-3.347A3.322,3.322,0,0,1,152.166,31.446Zm6.356,24.031a4.644,4.644,0,0,1,0,9.289,4.673,4.673,0,0,1-4.55-3.685H141.109c0,.827.226,2.294-.978,2.294H130.015c-1.2,0-.978-1.467-.978-2.294H116.176A4.637,4.637,0,0,1,107,60.1a4.622,4.622,0,0,1,4.626-4.626,4.673,4.673,0,0,1,4.55,3.685h12.861c0-2.783-.188-2.294,5.039-2.294V54.386h-22.3a.971.971,0,0,1-.978-.978V41.148a1,1,0,0,1,.978-.978h7.183V35.206h-7.183a1,1,0,0,1-.978-.978V21.969a.971.971,0,0,1,.978-.978h46.557a.949.949,0,0,1,.978.978v12.26a.971.971,0,0,1-.978.978h-7.145V40.17h7.145a.971.971,0,0,1,.978.978v12.26a.949.949,0,0,1-.978.978h-22.3v2.482c5.265,0,5.077-.489,5.077,2.294h12.861A4.673,4.673,0,0,1,158.521,55.476Zm-27.528,5.942h8.161V58.823h-8.161Zm-19.367-3.986a2.689,2.689,0,1,0,0,5.378,2.689,2.689,0,1,0,0-5.378Zm2.708,2.67Zm44.188-2.67a2.689,2.689,0,1,0,2.67,2.67A2.689,2.689,0,0,0,158.521,57.432ZM145.058,30.393H125.014a.931.931,0,0,1-.94-.94V26.745a.963.963,0,0,1,.94-.978h20.044a1,1,0,0,1,.978.978v2.708A.963.963,0,0,1,145.058,30.393Zm-19.067-1.918H144.08v-.752H125.991ZM145.058,49.61H125.014a.963.963,0,0,1-.94-.978v-2.67a.94.94,0,0,1,.94-.978h20.044a.971.971,0,0,1,.978.978v2.67A1,1,0,0,1,145.058,49.61Zm-19.067-1.956H144.08V46.9H125.991Zm-2.933-5.528h-10.3V52.468h44.639V42.126Zm.978-6.92V40.17h22.075V35.206Zm-3.121,4.964h1.166V35.206h-1.166Zm28.318,0V35.206h-1.166V40.17Zm-5.039-21.887a8.846,8.846,0,0,1-7.9-4.851H121.817a4.005,4.005,0,1,1,0-8.01H136.3a8.875,8.875,0,0,1,15.945.3.956.956,0,0,1-.865,1.354H145.66c-3.084,0-3.084,4.7,0,4.7h5.716a.956.956,0,0,1,.865,1.354A8.872,8.872,0,0,1,144.193,18.283ZM121.817,7.377a2.05,2.05,0,0,0,0,4.1h15.118a.977.977,0,0,1,.9.6A6.889,6.889,0,0,0,149.608,13.7H145.66a4.268,4.268,0,1,1,0-8.537h3.949a6.891,6.891,0,0,0-11.771,1.617.977.977,0,0,1-.9.6Zm11.846,3.009h-5.754a.959.959,0,1,1,0-1.918h5.754A.959.959,0,0,1,133.663,10.386Zm-15.72,40.239a3.328,3.328,0,1,1,3.347-3.347A3.347,3.347,0,0,1,117.944,50.625Zm0-4.738a1.413,1.413,0,0,0-1.391,1.391,1.388,1.388,0,0,0,1.391,1.391,1.365,1.365,0,0,0,1.391-1.391A1.388,1.388,0,0,0,117.944,45.887Zm34.222,4.738a3.328,3.328,0,1,1,3.347-3.347A3.322,3.322,0,0,1,152.166,50.625Zm0-4.738a1.413,1.413,0,0,0-1.391,1.391,1.388,1.388,0,0,0,1.391,1.391,1.365,1.365,0,0,0,1.391-1.391A1.388,1.388,0,0,0,152.166,45.887ZM112.754,33.251h44.639v-10.3H112.754Zm5.19-1.805A3.347,3.347,0,1,1,121.29,28.1,3.347,3.347,0,0,1,117.944,31.446Zm0-4.738a1.391,1.391,0,0,0,0,2.783,1.391,1.391,0,1,0,0-2.783Zm34.222,0a1.391,1.391,0,1,0,0,2.783,1.391,1.391,0,1,0,0-2.783Z" transform="translate(0 0)" fill="#000002" fill-rule="evenodd"/>
  </g>
</svg>
